<?xml version="1.0" standalone="no"?>
<!DOCTYPE svg PUBLIC "-//W3C//DTD SVG 20010904//EN"
 "http://www.w3.org/TR/2001/REC-SVG-20010904/DTD/svg10.dtd">
<svg version="1.0" xmlns="http://www.w3.org/2000/svg"
 width="2000.000000pt" height="2000.000000pt" viewBox="0 0 2000.000000 2000.000000"
 preserveAspectRatio="xMidYMid meet">
<metadata>
Created by potrace 1.14, written by Peter Selinger 2001-2017
</metadata>
<g transform="translate(0.000000,2000.000000) scale(0.100000,-0.100000)"
fill="#000000" stroke="none">
<path d="M10100 19189 c0 -5 7 -9 15 -9 9 0 15 -9 15 -24 0 -18 -7 -25 -27
-29 -16 -3 -33 -1 -39 4 -8 7 -11 1 -11 -17 0 -56 -58 -70 -81 -19 -14 30 -38
33 -47 6 -3 -10 -17 -22 -32 -26 -31 -7 -83 12 -83 31 0 16 -29 19 -31 4 -3
-20 -4 -25 -12 -37 -11 -18 -27 -16 -27 2 0 20 -5 19 -41 -7 -16 -12 -44 -23
-62 -24 -18 -1 -40 -5 -49 -8 -19 -9 -19 13 -1 36 9 11 6 14 -15 15 -15 0 -34
2 -42 4 -10 3 -14 -2 -12 -13 3 -22 -16 -23 -78 -5 -50 15 -60 15 -77 4 -7 -5
-13 -6 -13 -3 0 3 -26 -4 -57 -15 -43 -15 -58 -16 -64 -7 -4 7 -3 18 2 24 7 9
5 16 -9 23 -11 6 -23 7 -27 3 -4 -4 -4 4 0 16 7 23 7 23 -19 7 -14 -10 -23
-21 -21 -26 3 -4 -4 -13 -15 -19 -11 -6 -20 -8 -20 -6 0 3 -11 -6 -25 -19 -13
-14 -29 -25 -35 -25 -16 0 -36 22 -44 48 -10 32 -26 27 -26 -8 0 -44 0 -43
-18 -63 -14 -15 -27 -18 -69 -14 -38 4 -55 1 -64 -9 -7 -8 -19 -12 -27 -9 -9
3 -19 0 -24 -7 -6 -10 -10 -10 -18 2 -5 8 -10 23 -10 32 0 9 -4 28 -10 42 -12
32 -35 25 -49 -15 -9 -25 -15 -29 -50 -29 -22 0 -43 -4 -46 -10 -10 -16 -25
-11 -25 8 0 24 -8 32 -26 25 -8 -3 -14 -16 -14 -30 0 -19 -4 -24 -16 -19 -9 3
-19 6 -24 6 -8 0 -23 38 -21 53 2 17 -10 5 -19 -18 -6 -15 -17 -25 -29 -25
-22 0 -41 -27 -34 -47 6 -17 -17 -16 -60 2 -19 8 -37 11 -41 8 -3 -4 -6 1 -6
10 0 11 -8 17 -24 17 -38 0 -56 -10 -71 -41 -10 -18 -21 -26 -29 -23 -8 3 -25
-6 -38 -21 -35 -40 -171 -94 -192 -75 -17 13 -40 7 -78 -22 -30 -23 -38 -25
-54 -15 -27 17 -70 13 -94 -8 -11 -10 -20 -14 -20 -10 0 8 -22 -16 -54 -59
-15 -20 -22 -24 -32 -15 -15 13 -16 10 -18 -41 -1 -30 -6 -38 -41 -55 -22 -11
-43 -24 -46 -28 -3 -5 -17 -5 -31 -2 -22 6 -27 2 -35 -22 -6 -15 -9 -38 -7
-51 3 -17 -3 -25 -24 -33 -15 -6 -34 -11 -43 -12 -10 -1 -15 -7 -12 -15 3 -7
12 -11 21 -7 8 3 21 0 28 -6 17 -14 -3 -49 -28 -49 -21 0 -36 -46 -19 -63 16
-16 14 -47 -4 -53 -9 -4 -15 -19 -15 -38 0 -17 -8 -42 -17 -55 -9 -14 -11 -21
-5 -17 8 5 11 0 8 -16 -3 -13 -5 -27 -5 -32 -1 -4 -10 -6 -21 -3 -24 6 -38
-11 -16 -19 9 -3 12 -12 8 -22 -9 -24 -21 -35 -69 -59 -38 -20 -42 -21 -47 -5
-7 21 2 94 12 102 4 3 13 13 21 23 12 15 12 17 -3 11 -9 -3 -16 -10 -16 -15 0
-5 -6 -9 -14 -9 -8 0 -16 -6 -19 -12 -3 -10 -9 -10 -26 0 -29 17 -80 15 -87
-3 -10 -24 -67 -18 -100 10 -16 14 -25 25 -20 25 5 0 -4 11 -19 24 -35 31 -76
40 -91 20 -23 -29 -104 -4 -104 32 0 8 -4 14 -10 14 -5 0 -10 -7 -10 -16 0
-12 -6 -15 -20 -11 -13 3 -30 -3 -46 -18 -22 -21 -28 -22 -40 -10 -8 7 -14 18
-14 24 0 15 -8 14 -39 -8 -15 -11 -54 -25 -87 -32 l-59 -12 -43 42 c-23 23
-40 45 -38 49 3 4 -4 8 -15 8 -10 0 -19 -6 -19 -13 0 -14 -34 -35 -44 -26 -3
3 -6 -3 -6 -15 0 -26 -17 -37 -35 -22 -11 9 -17 7 -27 -9 -16 -26 -22 -26 -48
-3 -11 9 -24 17 -28 17 -4 1 -17 6 -30 14 -16 8 -27 9 -35 2 -8 -6 -18 -6 -27
-1 -23 15 -34 12 -20 -5 7 -8 9 -15 5 -15 -4 0 -2 -7 5 -15 7 -8 9 -15 4 -15
-5 -1 1 -9 14 -19 27 -23 20 -50 -14 -53 -81 -6 -84 -5 -84 14 0 10 -7 18 -15
18 -8 0 -15 -7 -15 -15 0 -8 -7 -15 -16 -15 -8 0 -12 -5 -9 -11 11 -16 -27
-39 -47 -28 -10 6 -19 5 -23 -1 -10 -16 -42 -12 -49 6 -9 24 -26 6 -26 -27 0
-24 -4 -29 -23 -29 -12 0 -33 -7 -45 -16 -13 -9 -30 -13 -38 -10 -8 3 -24 -4
-36 -16 -28 -28 -95 -31 -122 -6 -26 24 -39 12 -31 -29 6 -34 5 -35 -17 -29
-13 4 -34 9 -48 11 -14 2 -40 8 -57 13 -34 11 -37 8 -34 -30 2 -17 -32 -34
-48 -24 -5 3 -7 -2 -4 -13 3 -14 -5 -22 -35 -34 -42 -17 -63 -37 -40 -37 8 0
15 -13 16 -30 3 -35 -4 -37 -38 -13 -36 26 -50 25 -50 -4 0 -13 -7 -31 -15
-40 -19 -18 -75 -29 -75 -14 0 6 -10 11 -23 11 -12 0 -34 7 -47 17 -14 9 -19
10 -12 3 18 -20 15 -35 -13 -61 -34 -33 -31 -43 11 -36 29 5 40 1 65 -22 35
-34 36 -42 7 -34 -13 2 -44 6 -70 8 -47 2 -56 -4 -64 -44 -3 -16 -28 -33 -59
-41 -12 -4 -21 -16 -23 -32 -4 -35 -37 -43 -71 -17 -25 18 -30 18 -55 5 -16
-8 -23 -17 -17 -21 16 -9 13 -29 -8 -54 -29 -34 -61 -35 -96 -3 -29 27 -30 27
-7 1 l23 -26 -28 -19 c-15 -10 -32 -17 -36 -16 -5 1 -8 -6 -7 -15 4 -39 -1
-53 -19 -53 -10 0 -21 7 -25 15 -6 17 -46 21 -46 5 0 -5 5 -10 10 -10 6 0 10
-4 10 -10 0 -5 -7 -10 -15 -10 -11 0 -14 -7 -9 -25 6 -23 4 -25 -25 -19 -24 5
-32 3 -38 -12 -9 -25 -22 -33 -45 -29 -12 3 -18 -2 -18 -13 -1 -23 -35 -62
-54 -62 -9 0 -16 -4 -16 -10 0 -5 3 -9 8 -9 4 1 9 0 12 -1 3 -1 13 -3 23 -5
10 -2 25 -9 34 -16 13 -12 13 -15 -7 -31 -12 -10 -26 -15 -31 -12 -5 3 -9 0
-9 -6 0 -12 -58 -9 -77 3 -11 7 -50 -31 -55 -53 -2 -8 -10 -20 -18 -26 -11 -9
-6 -11 23 -8 43 5 48 -8 12 -32 -31 -20 -58 -12 -100 32 -18 19 -37 34 -42 34
-4 0 5 -11 20 -25 21 -21 25 -30 17 -44 -15 -29 -38 -33 -54 -9 -9 12 -18 19
-21 16 -3 -3 0 -12 8 -20 8 -8 18 -24 21 -36 8 -24 -4 -28 -35 -12 -16 9 -21
7 -31 -15 -6 -14 -18 -25 -25 -25 -20 0 -40 -23 -35 -39 3 -8 0 -11 -6 -8 -5
4 -12 -2 -15 -12 -3 -13 -12 -18 -30 -16 -19 2 -24 -1 -20 -11 3 -8 0 -21 -7
-29 -11 -14 -15 -14 -35 -1 -28 18 -37 11 -25 -19 5 -13 7 -25 4 -28 -3 -2 -7
-17 -10 -33 -6 -32 -19 -49 -37 -49 -7 0 -12 -13 -13 -28 -1 -27 -31 -60 -46
-51 -5 3 -8 -13 -8 -34 0 -26 -5 -42 -15 -46 -21 -8 -67 11 -86 36 -25 32 -38
15 -32 -44 7 -79 5 -100 -14 -120 -17 -19 -43 -25 -43 -10 0 5 -12 14 -26 21
-24 10 -26 10 -19 -6 11 -26 8 -55 -7 -64 -19 -13 -52 -11 -66 3 -7 7 -12 8
-12 3 0 -6 -13 -26 -30 -45 -20 -24 -26 -38 -19 -45 7 -7 14 -5 22 6 18 24 52
32 66 15 9 -11 7 -20 -13 -41 -14 -15 -22 -33 -19 -41 4 -10 -3 -14 -25 -14
-17 0 -34 -4 -37 -10 -10 -16 -75 -12 -81 5 -4 8 -10 15 -15 15 -9 0 31 -73
43 -78 16 -7 7 -31 -14 -37 -15 -5 -26 -1 -37 14 -16 21 -16 21 -28 1 -7 -10
-10 -32 -7 -48 5 -26 3 -30 -22 -36 -18 -5 -30 -3 -32 3 -5 16 -42 -6 -42 -24
0 -8 -7 -15 -15 -15 -8 0 -14 -6 -13 -12 2 -7 -3 -12 -11 -10 -11 2 -12 0 -4
-10 23 -30 22 -48 -5 -73 -15 -14 -33 -23 -41 -20 -9 4 -12 -1 -8 -15 3 -11
-1 -39 -8 -62 -8 -24 -14 -39 -14 -35 -2 17 -42 -32 -50 -59 -6 -23 -14 -29
-39 -31 -17 -2 -34 2 -37 7 -9 15 -25 12 -25 -5 0 -8 -11 -38 -24 -66 l-25
-51 23 16 c44 28 50 -17 8 -62 -43 -46 -70 -46 -76 0 -1 3 -4 10 -9 14 -15 15
-11 -64 5 -83 13 -16 1 -35 -20 -31 -26 4 -42 -11 -42 -38 0 -13 -5 -24 -10
-24 -6 0 -15 -11 -20 -25 -6 -16 -20 -27 -38 -31 -16 -3 -29 -12 -29 -20 0 -8
4 -14 8 -14 3 0 9 -9 12 -19 4 -16 -2 -21 -25 -27 -17 -3 -32 -14 -35 -23 -3
-9 -18 -25 -35 -36 -27 -18 -68 -86 -50 -84 38 6 49 -26 20 -57 -13 -13 -27
-24 -32 -24 -10 0 -46 -40 -46 -51 0 -5 -13 -6 -29 -3 -21 5 -30 2 -35 -12 -4
-10 -1 -21 6 -25 7 -5 14 -4 16 1 6 16 32 -1 32 -20 0 -23 -17 -35 -33 -23 -7
5 -18 8 -24 7 -7 -1 -19 -2 -27 -3 -8 0 -16 -7 -19 -15 -4 -9 0 -12 13 -9 21
6 60 -13 60 -28 0 -14 -61 -64 -79 -65 -34 -2 -39 -5 -44 -23 -5 -21 14 -34
37 -25 8 3 16 -3 19 -15 3 -12 2 -19 -2 -17 -4 3 -13 1 -21 -4 -9 -5 -19 -5
-26 1 -17 14 -44 -16 -39 -44 6 -30 -4 -59 -17 -51 -7 5 -9 -2 -6 -19 3 -16 0
-31 -8 -38 -18 -15 -17 -47 1 -79 20 -35 18 -41 -8 -35 -17 5 -23 2 -24 -13
-1 -11 -9 -36 -17 -57 -15 -34 -19 -37 -46 -32 -23 5 -32 2 -41 -15 -8 -15 -8
-22 1 -28 10 -6 9 -13 -4 -31 -9 -13 -16 -33 -16 -45 0 -12 -10 -26 -25 -34
-19 -10 -22 -17 -15 -30 5 -10 7 -20 4 -23 -3 -3 -10 -38 -15 -78 -5 -40 -15
-76 -21 -81 -7 -4 -9 -8 -4 -8 19 0 -18 -31 -47 -38 -17 -4 -32 -13 -35 -20
-2 -7 0 -12 5 -11 21 4 22 -2 3 -21 -27 -27 -26 -50 1 -43 19 5 21 2 17 -33
-2 -29 -8 -41 -23 -45 -24 -7 -55 7 -55 25 0 22 -25 26 -38 5 -10 -16 -9 -19
6 -19 24 0 42 -19 35 -36 -3 -8 -13 -14 -22 -14 -36 0 -78 -63 -45 -66 5 0 17
-4 27 -9 17 -7 17 -10 -7 -32 -14 -13 -26 -30 -26 -38 0 -7 -5 -15 -11 -17
-11 -4 -15 -40 -8 -64 6 -19 -45 -93 -63 -94 -15 0 -20 -9 -20 -40 -1 -3 2
-17 6 -33 5 -23 2 -29 -18 -38 -36 -17 -38 -33 -10 -70 30 -41 30 -47 0 -55
-14 -3 -27 -13 -31 -22 -3 -9 -3 -13 1 -10 9 9 34 -17 39 -41 4 -22 -26 -34
-59 -22 -11 4 -28 6 -37 4 -17 -4 -55 -62 -42 -64 4 -1 13 -2 18 -4 6 -1 18
-3 29 -3 24 -3 15 -41 -19 -78 -28 -30 -29 -37 -14 -65 8 -17 5 -25 -20 -48
-39 -36 -39 -44 -2 -36 38 8 51 -12 23 -36 -12 -9 -22 -21 -22 -26 0 -10 -42
-38 -53 -35 -5 1 -7 -8 -5 -20 2 -13 9 -22 16 -20 19 3 14 -6 -17 -37 -28 -27
-28 -28 -13 -65 13 -32 13 -39 1 -47 -8 -5 -11 -9 -7 -9 4 0 3 -12 -3 -27 -6
-16 -13 -41 -14 -58 -8 -78 -17 -121 -29 -130 -18 -14 -31 -75 -17 -75 6 0 11
-7 11 -15 0 -8 -8 -15 -18 -15 -23 0 -52 -62 -40 -84 5 -9 16 -16 25 -16 13 0
14 -3 5 -12 -18 -18 -14 -38 8 -38 30 0 14 -28 -26 -45 -31 -13 -33 -16 -34
-67 -2 -88 -1 -90 11 -120 9 -22 9 -31 -2 -44 -19 -23 -20 -42 -2 -40 10 1 16
-11 18 -36 3 -31 -1 -41 -26 -63 -17 -14 -26 -25 -20 -25 18 0 12 -31 -9 -50
-30 -26 -49 -83 -54 -166 -3 -36 -1 -41 16 -36 16 4 18 0 13 -24 -4 -16 -7
-40 -8 -55 -1 -14 -10 -37 -19 -51 -15 -23 -15 -28 -3 -38 8 -7 15 -17 15 -22
0 -5 9 -21 20 -35 26 -33 26 -63 0 -70 -15 -4 -19 -13 -18 -39 1 -23 -5 -40
-20 -53 -26 -22 -29 -43 -4 -39 13 2 16 -3 14 -22 -1 -14 -4 -34 -5 -45 -1
-15 5 -21 26 -23 22 -3 27 -7 21 -20 -3 -9 -9 -28 -12 -42 -6 -28 -26 -52 -36
-43 -3 4 -6 2 -6 -4 0 -17 -38 -22 -51 -7 -16 20 -27 7 -35 -43 -5 -30 -3 -43
5 -43 7 0 9 5 6 10 -3 6 5 10 18 10 28 0 35 -12 32 -52 -1 -21 3 -28 15 -28
10 0 20 7 24 15 5 13 36 22 36 10 0 -12 -53 -80 -62 -77 -5 1 -7 -2 -4 -7 7
-11 -18 -33 -27 -24 -4 3 -7 3 -7 -1 0 -3 9 -10 20 -14 18 -7 18 -10 6 -34 -8
-15 -12 -29 -10 -31 3 -2 0 -16 -6 -31 -5 -15 -12 -37 -14 -50 l-4 -24 43 29
c23 16 48 29 54 29 21 0 11 -48 -14 -68 -31 -25 -31 -37 0 -64 13 -11 22 -25
19 -30 -3 -4 -6 -34 -7 -66 -2 -37 -12 -77 -29 -115 l-27 -58 26 21 c37 29 45
25 37 -16 -4 -22 -2 -45 7 -60 10 -19 10 -37 3 -73 -12 -58 -9 -71 18 -71 19
0 20 -4 15 -44 -5 -33 -2 -47 9 -57 8 -6 13 -17 11 -23 -2 -6 1 -22 8 -36 6
-14 11 -32 10 -40 -1 -8 -3 -21 -3 -29 -1 -8 -5 -11 -9 -8 -3 4 -17 -2 -29
-14 -22 -20 -22 -21 -4 -39 10 -10 29 -20 42 -22 13 -2 22 -9 20 -16 -1 -8 1
-11 5 -9 5 3 18 1 29 -3 20 -8 21 -14 17 -77 -3 -37 -9 -75 -14 -84 -5 -9 -5
-19 -2 -23 12 -11 13 -45 3 -51 -6 -3 -10 -13 -10 -21 0 -13 4 -13 30 1 27 14
30 14 39 -3 6 -11 6 -24 0 -35 -13 -23 -4 -36 20 -30 13 3 21 -2 26 -16 7 -22
-1 -44 -14 -37 -3 3 -7 -16 -7 -40 -1 -50 19 -70 60 -60 13 3 31 -1 42 -9 10
-8 16 -15 13 -15 -4 0 -4 -15 0 -33 5 -18 5 -41 1 -52 -6 -16 -1 -22 24 -30
52 -17 72 -98 22 -94 -38 3 -48 -1 -43 -15 3 -8 2 -16 -3 -18 -5 -2 -4 -13 3
-24 54 -94 56 -101 42 -120 -7 -11 -16 -16 -20 -12 -11 11 -58 -38 -52 -53 4
-10 6 -9 6 3 1 24 37 42 59 29 13 -8 14 -10 2 -11 -10 0 -15 -11 -16 -30 -1
-24 4 -32 22 -36 28 -7 30 -17 9 -38 -8 -8 -15 -20 -15 -26 0 -6 -5 -8 -10 -5
-6 3 -10 1 -10 -4 0 -6 -6 -10 -12 -8 -9 1 -12 -10 -10 -35 3 -31 0 -38 -15
-38 -17 -1 -17 -2 2 -16 11 -8 21 -10 23 -5 5 16 32 0 32 -19 0 -10 -10 -24
-23 -33 -18 -12 -20 -18 -11 -34 7 -10 12 -38 12 -62 1 -26 8 -51 18 -62 15
-17 14 -33 -4 -35 -4 0 -15 -4 -24 -8 -10 -5 -25 -6 -33 -3 -8 4 -17 2 -21 -4
-3 -6 -11 -8 -18 -6 -8 3 -11 -7 -10 -32 2 -56 3 -57 24 -58 12 -1 18 3 14 9
-7 10 44 6 100 -8 30 -7 34 -29 7 -43 -30 -16 -34 -86 -5 -81 5 0 11 -6 12
-16 2 -9 0 -14 -5 -11 -4 3 -13 -1 -20 -8 -15 -16 0 -40 21 -32 10 4 20 -1 26
-13 13 -25 13 -26 -11 -48 -27 -26 -36 -107 -12 -116 10 -4 13 -14 10 -27 -8
-29 12 -80 45 -112 15 -16 28 -34 28 -41 0 -7 11 -30 25 -50 23 -35 26 -64 4
-51 -5 4 -14 -5 -21 -19 -6 -14 -14 -26 -18 -26 -11 0 -5 -59 8 -72 9 -9 12
-8 12 5 0 11 8 17 24 17 31 0 65 -64 48 -91 -7 -11 -8 -19 -1 -21 13 -4 22
-58 9 -58 -5 0 -10 -9 -10 -20 0 -12 5 -17 14 -14 15 6 46 -20 46 -39 0 -7 20
-25 44 -41 52 -35 57 -59 11 -54 -34 4 -52 -8 -57 -38 -2 -15 5 -20 39 -24 24
-4 48 -3 54 1 18 11 39 -1 39 -22 0 -11 7 -30 14 -42 8 -12 18 -40 21 -62 11
-72 13 -90 14 -108 1 -11 10 -21 20 -24 12 -3 23 -17 26 -34 4 -16 10 -27 15
-24 14 9 59 -42 55 -62 -2 -10 -4 -21 -4 -25 -1 -3 -15 -9 -32 -13 -28 -6 -30
-8 -15 -23 12 -13 23 -14 59 -5 39 8 46 7 60 -10 9 -11 15 -33 13 -49 -3 -21
3 -34 21 -48 14 -11 23 -26 20 -34 -4 -9 2 -16 15 -19 13 -4 19 -11 15 -20 -3
-8 3 -31 13 -50 18 -32 18 -36 3 -49 -9 -7 -19 -12 -22 -11 -3 1 -8 -1 -10 -3
-2 -2 3 -4 13 -4 17 0 22 -3 70 -44 15 -14 37 -28 48 -32 23 -7 21 -51 -2 -46
-8 2 1 -10 20 -27 31 -26 34 -32 22 -50 -7 -12 -9 -21 -5 -22 62 -6 93 -32 93
-77 0 -21 6 -35 16 -39 49 -19 93 -100 53 -97 -18 1 -22 -33 -6 -52 62 -74
100 -102 135 -99 16 1 27 -6 34 -20 7 -16 16 -21 32 -18 34 7 44 -26 15 -48
-21 -16 -21 -16 -2 -21 17 -5 20 -13 18 -59 -2 -65 11 -89 64 -112 30 -13 41
-25 43 -44 2 -16 10 -27 21 -29 41 -6 48 -13 37 -33 -8 -16 -5 -28 11 -57 19
-34 19 -39 5 -50 -20 -14 -21 -28 0 -20 8 3 31 -1 49 -9 l35 -14 -18 -30 c-9
-17 -24 -32 -32 -35 -12 -3 21 -1 50 3 3 1 7 13 8 28 1 15 6 31 11 36 14 14
79 -2 90 -21 11 -20 -1 -47 -21 -47 -27 0 -11 -32 42 -83 39 -38 60 -52 75
-48 13 3 26 -3 37 -18 20 -27 10 -47 -24 -49 -16 -1 -24 -7 -21 -14 4 -11 17
-17 26 -11 10 6 47 -27 47 -42 0 -11 11 -27 25 -36 14 -9 23 -19 21 -22 -11
-10 15 -42 34 -42 10 0 25 -8 32 -17 7 -10 24 -20 38 -21 29 -5 50 -19 50 -37
0 -19 32 -50 66 -64 24 -9 36 -24 49 -57 12 -31 22 -44 36 -44 10 0 19 -6 19
-14 0 -7 11 -30 25 -50 40 -59 31 -87 -19 -60 -51 26 -62 16 -21 -21 22 -19
41 -32 44 -30 2 3 11 -1 19 -7 22 -19 42 -18 55 3 13 22 57 26 57 5 0 -7 11
-25 25 -40 14 -15 25 -33 25 -40 0 -15 -41 -30 -50 -18 -9 13 -27 11 -27 -2 0
-10 15 -13 59 -10 34 2 58 0 58 -6 0 -6 11 -8 26 -4 25 6 26 6 19 -27 -4 -19
-13 -38 -20 -44 -36 -29 -18 -63 20 -39 17 10 45 12 76 5 8 -1 5 -33 -5 -49
-4 -7 -12 -9 -18 -6 -7 4 -8 2 -4 -4 4 -7 27 -12 51 -12 41 0 46 -3 59 -34 17
-40 30 -50 52 -38 12 7 27 -2 61 -35 40 -37 45 -47 40 -73 -4 -17 -2 -30 3
-30 6 0 9 -4 7 -9 -1 -5 1 -10 5 -10 4 -1 19 -13 33 -27 14 -14 32 -23 40 -20
8 3 17 1 20 -5 4 -5 12 -6 18 -2 22 13 37 11 37 -5 0 -8 3 -12 7 -9 3 4 17 -9
30 -27 21 -32 26 -34 59 -29 31 5 36 3 33 -12 -2 -10 -12 -19 -22 -21 -28 -4
-34 -14 -14 -25 9 -6 15 -14 12 -20 -4 -5 -1 -9 5 -9 6 0 8 -5 5 -10 -4 -6 -1
-9 7 -8 7 2 12 -3 10 -10 -1 -8 2 -11 7 -8 5 4 12 2 16 -4 3 -5 21 -9 40 -8
19 1 41 -5 50 -12 19 -16 19 -46 0 -54 -8 -3 -15 -13 -15 -21 0 -10 5 -13 11
-9 7 4 25 7 42 6 17 0 43 6 58 13 24 13 28 13 35 -3 4 -9 6 -21 5 -27 -1 -5 7
-1 19 10 30 27 49 4 43 -52 -4 -34 -9 -43 -24 -43 -10 0 -19 -4 -19 -10 0 -5
14 -10 30 -10 23 0 30 4 30 20 0 37 31 36 62 0 30 -37 35 -59 16 -78 -9 -9 -6
-10 13 -7 13 3 31 14 41 25 18 23 50 17 41 -7 -4 -9 1 -21 11 -28 9 -7 18 -22
19 -34 1 -23 9 -26 37 -11 14 7 23 6 34 -6 18 -17 19 -23 20 -73 1 -42 22 -52
36 -17 19 50 108 15 95 -37 -5 -17 -2 -26 9 -30 9 -4 16 -2 16 2 0 22 34 19
65 -6 30 -24 33 -31 31 -73 -1 -40 1 -46 16 -42 10 2 15 9 12 14 -11 17 6 78
21 78 8 0 15 -5 15 -10 0 -6 11 -16 25 -22 30 -13 32 -28 6 -35 -27 -7 -19
-39 16 -66 22 -18 38 -21 80 -19 34 3 53 0 53 -7 0 -16 46 -13 60 4 7 8 18 15
26 15 15 0 37 -67 27 -83 -3 -6 -1 -7 4 -4 6 4 10 -3 10 -17 1 -15 -9 -29 -24
-37 l-25 -14 23 -6 c13 -3 38 -2 54 3 17 5 47 11 68 13 21 3 44 6 50 8 7 1 11
-4 10 -10 -2 -7 9 -15 25 -19 59 -13 85 -25 104 -49 21 -27 41 -26 31 2 -4 11
-2 14 8 11 19 -6 48 -68 43 -93 -6 -28 16 -65 37 -65 21 0 34 16 19 25 -5 3
-10 12 -10 20 0 9 12 13 40 12 22 -1 40 -5 40 -9 0 -5 9 -8 20 -8 11 0 20 -4
20 -9 0 -5 9 -11 20 -14 13 -3 20 -14 20 -30 0 -23 5 -26 53 -33 50 -8 61 -9
100 -13 10 0 23 -14 28 -31 12 -32 24 -38 33 -17 6 16 36 -20 36 -44 0 -9 7
-19 15 -22 17 -7 30 9 15 18 -6 4 -8 10 -5 15 3 4 -2 10 -10 14 -23 9 -18 26
9 26 15 0 26 -7 29 -20 3 -11 19 -25 36 -31 19 -7 31 -18 31 -29 0 -37 40 -46
52 -11 6 20 35 22 42 4 5 -12 9 -13 21 -3 17 14 19 9 30 -53 5 -33 9 -37 30
-33 14 3 27 0 31 -5 4 -7 25 -8 54 -4 53 7 65 -1 51 -37 -6 -15 -5 -27 3 -34
17 -16 36 -5 36 20 0 19 38 63 50 58 3 -1 5 -13 5 -27 0 -14 5 -25 10 -25 6 0
10 6 10 13 0 11 7 13 34 9 10 -2 26 -42 23 -55 -1 -5 2 -6 8 -2 5 3 10 -1 10
-9 0 -20 29 -21 36 -2 9 24 44 5 59 -31 11 -25 19 -33 30 -29 9 3 18 -1 21 -9
5 -12 10 -12 27 -3 12 7 36 13 52 14 17 1 39 4 50 6 16 2 20 -2 18 -23 -1 -22
2 -25 23 -21 13 2 24 8 24 13 0 14 32 -3 63 -33 30 -28 47 -29 47 -2 0 20 30
17 31 -3 0 -10 2 -26 4 -36 2 -9 0 -17 -4 -17 -4 0 -16 -7 -27 -15 -18 -13
-17 -14 20 -15 l38 0 -8 38 c-16 82 -5 111 31 76 12 -12 13 -19 5 -24 -9 -6
-9 -9 0 -12 7 -2 13 -22 13 -48 0 -25 2 -35 4 -23 2 12 16 29 31 39 15 10 33
24 40 31 26 26 54 12 56 -28 1 -9 11 -29 23 -42 12 -14 19 -27 17 -30 -2 -2 2
-10 11 -17 11 -9 18 -10 28 -1 11 8 28 1 76 -31 47 -31 65 -38 73 -30 9 9 7
15 -7 25 -13 10 -16 21 -12 40 6 23 12 25 54 24 42 0 51 -5 95 -49 27 -27 46
-53 43 -58 -4 -6 0 -10 7 -10 8 0 20 -15 27 -33 14 -31 14 -31 18 -7 9 57 13
66 34 67 12 1 31 -3 42 -8 13 -8 17 -8 13 0 -4 5 2 15 13 20 23 13 37 -1 43
-39 2 -17 10 -26 26 -28 12 -2 22 1 22 7 0 18 31 12 48 -9 15 -18 22 -19 55
-10 20 6 37 17 37 24 0 8 9 16 20 19 16 4 20 0 20 -22 0 -14 7 -37 16 -50 l16
-23 12 24 c8 15 19 22 32 20 21 -3 54 25 44 37 -3 3 4 7 14 9 11 3 26 -5 35
-17 l17 -22 21 21 c12 11 25 20 28 20 13 0 45 -42 45 -60 0 -11 6 -21 13 -22
6 0 17 -2 22 -2 6 -1 15 -5 22 -9 6 -4 15 -1 20 7 6 10 15 11 31 5 18 -7 22
-14 18 -31 -3 -13 -3 -17 0 -10 9 20 31 14 38 -11 3 -12 18 -30 34 -39 28 -17
30 -17 49 0 11 9 18 23 16 30 -3 6 0 12 5 12 6 0 18 7 27 16 15 15 17 15 34 0
20 -18 47 -21 56 -6 4 6 10 8 15 5 5 -3 7 3 5 13 -2 11 8 31 22 46 20 22 28
25 39 15 8 -7 12 -20 9 -30 -5 -16 -1 -19 23 -19 22 0 31 6 35 21 5 18 10 20
34 14 15 -4 36 -7 46 -7 20 1 24 -6 31 -57 3 -18 9 -38 15 -44 14 -14 41 -18
41 -5 0 5 15 8 32 6 28 -3 33 0 33 20 0 12 3 22 8 22 4 0 21 7 38 16 l32 16
-7 -49 c-4 -26 -9 -56 -12 -65 -4 -15 -2 -16 18 -9 14 5 22 15 20 26 -2 10 -1
33 3 51 5 28 10 33 30 32 26 -2 40 -22 28 -40 -15 -26 -11 -59 10 -70 20 -10
21 -10 9 5 -12 14 -12 25 -1 67 13 51 16 55 35 42 14 -9 30 -57 16 -48 -5 3
-12 -1 -15 -9 -4 -8 -1 -12 7 -9 7 3 25 -2 41 -10 47 -25 55 17 11 54 -9 7
-16 16 -16 20 0 16 30 19 44 5 13 -13 16 -13 30 0 13 14 19 13 51 -2 28 -14
42 -15 64 -6 38 14 61 1 44 -25 -7 -12 -8 -24 -2 -33 5 -8 9 -9 10 -4 1 6 2
15 4 20 1 6 3 15 3 21 2 14 51 36 63 28 5 -3 9 -23 7 -44 -2 -49 17 -73 51
-65 14 4 30 7 36 8 5 1 17 16 25 32 13 25 21 30 50 29 20 -1 38 5 43 12 8 14
39 19 50 8 4 -4 25 -8 47 -9 22 -1 51 -10 65 -19 14 -9 25 -12 25 -6 0 5 7 10
15 10 8 0 15 5 15 10 0 30 18 63 30 55 4 -3 16 2 24 11 14 13 20 14 46 2 29
-13 37 -27 23 -42 -14 -13 -11 -36 5 -45 29 -15 57 4 72 48 15 47 24 50 51 19
11 -14 19 -18 20 -10 1 6 3 17 4 22 1 6 3 15 4 20 2 15 16 12 41 -10 13 -11
26 -20 29 -21 41 -7 61 -4 61 8 0 8 4 12 9 9 5 -3 11 2 13 12 6 22 82 30 105
10 12 -10 17 -9 24 5 14 24 51 21 84 -5 16 -12 38 -22 49 -23 14 0 22 -10 28
-33 5 -18 13 -30 18 -27 5 3 7 12 4 19 -3 8 0 17 5 21 6 3 9 10 6 15 -11 18
25 70 48 71 12 0 52 3 89 5 37 2 69 0 72 -4 3 -5 6 -25 8 -46 1 -24 6 -35 14
-32 7 3 14 -4 16 -16 3 -20 4 -21 20 -5 9 9 27 17 40 18 22 0 23 0 2 9 -28 11
-36 33 -19 58 8 10 12 22 8 25 -3 3 -3 16 0 29 9 33 61 32 88 -2 12 -14 18
-20 15 -13 -9 16 31 42 55 36 10 -3 19 0 19 6 0 6 9 11 20 11 11 0 20 5 20 10
0 19 42 10 47 -10 5 -20 72 -60 101 -60 21 0 52 34 52 56 0 10 6 14 14 11 22
-9 28 5 10 24 -15 17 -14 19 20 35 32 16 34 19 21 34 -19 21 -10 30 31 30 40
0 66 9 58 21 -3 5 6 9 20 9 23 0 31 9 27 33 0 4 10 7 23 7 32 0 38 11 41 73 3
54 19 72 40 43 11 -14 17 -15 39 -5 15 7 26 20 26 31 0 11 7 26 15 35 14 14
14 17 0 33 -15 17 -15 21 0 54 17 36 23 40 62 37 33 -3 38 18 9 40 -24 19 -25
23 -13 51 7 16 14 29 17 27 6 -4 50 33 50 43 0 3 -8 9 -19 13 -21 6 -23 35 -3
51 8 5 13 17 12 25 -5 32 2 48 35 82 19 20 35 43 35 51 0 9 13 19 30 23 41 11
42 27 3 31 -18 2 -33 7 -33 12 0 8 24 21 49 26 8 1 17 7 20 12 10 14 47 20 65
10 19 -10 21 -35 4 -40 -6 -2 -8 -10 -4 -17 6 -8 11 -9 20 -1 10 7 22 4 46
-13 44 -29 46 -39 11 -55 -17 -8 -28 -19 -25 -26 4 -10 19 -11 66 -3 63 9 83
1 71 -29 -4 -10 2 -10 26 2 36 18 64 9 37 -12 -10 -7 -19 -28 -21 -48 -3 -33
-2 -34 20 -26 24 9 39 -1 40 -25 0 -5 21 -10 46 -10 25 0 52 -6 61 -12 8 -7
24 -11 36 -8 14 2 26 -3 32 -16 7 -13 21 -19 45 -19 39 0 50 -13 47 -52 -3
-36 10 -36 25 0 13 28 56 42 68 22 3 -5 20 4 37 21 40 37 62 34 66 -9 4 -38
19 -42 28 -7 3 14 13 25 21 25 11 0 14 -7 10 -21 -5 -18 -3 -20 21 -13 15 4
35 7 44 8 9 0 14 4 12 8 -3 4 2 8 10 8 9 0 16 -4 16 -10 0 -5 11 -10 24 -10
16 0 23 6 23 18 0 35 3 42 19 42 8 0 22 -7 30 -15 13 -12 19 -13 37 -3 12 7
24 13 27 13 3 1 22 7 42 15 31 11 35 16 27 32 -8 14 -6 20 8 24 10 3 39 14 65
25 57 23 55 23 61 2 4 -17 5 -16 6 0 1 15 6 17 31 12 28 -6 30 -5 30 22 0 28
15 53 32 53 5 0 8 -6 7 -12 -3 -26 2 -34 21 -35 11 -1 18 2 15 7 -3 5 9 12 27
15 41 9 58 22 58 46 0 26 14 31 47 18 48 -20 55 -19 89 18 48 52 64 72 63 78
-2 19 12 27 51 28 45 2 45 2 46 40 2 51 18 65 79 69 44 3 51 6 55 28 4 19 11
24 28 22 28 -4 72 23 72 43 0 18 12 19 29 2 10 -10 16 -8 30 10 10 12 21 19
25 16 3 -4 6 -2 6 4 0 23 40 55 67 53 45 -3 53 -1 53 14 0 8 8 22 17 32 10 9
18 22 19 28 0 6 2 17 2 24 1 8 8 12 15 9 6 -2 19 2 28 10 14 12 19 12 33 -2
14 -14 18 -15 37 -2 15 11 17 16 7 20 -9 3 -2 14 20 33 20 18 33 40 34 57 2
27 28 63 28 38 0 -16 38 -13 47 4 5 8 21 16 36 17 15 1 27 6 27 10 0 7 31 19
41 15 17 -6 40 29 35 54 -3 14 1 34 8 44 11 15 15 16 34 4 12 -8 22 -17 22
-21 0 -5 9 -8 20 -8 20 0 45 34 35 49 -8 14 14 63 25 56 17 -11 50 5 50 25 0
11 10 22 23 25 27 9 66 54 67 77 0 20 35 42 51 32 7 -4 7 1 -1 16 -10 19 -9
21 8 18 24 -4 72 21 72 39 0 11 12 17 32 15 10 -2 33 30 33 47 0 10 9 16 25
17 41 1 60 14 60 43 0 36 26 71 53 71 13 0 37 15 55 34 21 23 39 33 52 31 11
-2 20 2 20 8 0 7 7 24 14 39 9 16 11 30 5 33 -15 10 -10 19 27 48 34 28 36 28
49 10 13 -17 14 -16 20 9 4 16 18 31 35 38 18 7 27 17 23 26 -3 8 -8 12 -13 9
-9 -6 -32 44 -25 55 6 10 68 6 97 -5 9 -4 19 -14 21 -23 3 -12 5 -11 6 4 0 12
-6 24 -14 28 -22 8 -18 53 5 76 22 22 40 19 40 -6 0 -23 35 -12 36 11 2 39 4
44 29 67 14 13 26 36 27 51 2 28 28 39 28 12 0 -18 21 -20 38 -3 7 7 12 9 12
4 0 -4 8 0 18 10 12 12 17 35 18 78 1 34 2 64 3 69 1 9 42 -13 56 -31 7 -9 11
-1 12 29 3 50 4 52 40 51 39 0 44 5 32 32 -15 32 10 91 40 93 34 3 51 22 51
59 0 36 8 42 28 22 9 -9 12 -8 12 4 0 15 60 68 77 68 13 0 43 83 43 121 0 43
7 51 31 38 13 -6 19 -6 19 1 0 5 7 10 15 10 8 0 15 3 16 8 3 59 11 127 13 130
2 1 19 4 37 6 19 2 45 8 59 14 14 5 28 8 33 5 7 -4 11 40 7 84 -1 16 7 26 24
34 23 11 24 13 11 33 -16 22 -20 64 -7 81 4 6 25 10 47 10 36 0 40 2 37 23 -2
17 2 22 17 22 14 0 20 6 19 17 -3 37 3 52 20 55 12 2 18 14 19 43 3 71 5 75
32 75 22 0 26 5 27 30 1 39 21 62 48 55 12 -3 15 -2 9 1 -20 9 -15 34 5 34 15
0 19 9 21 47 1 26 4 50 7 55 6 9 43 -11 60 -31 9 -11 11 -6 9 22 -2 29 1 37
14 37 14 0 14 2 1 10 -12 7 -11 12 5 32 38 43 43 47 51 40 5 -4 2 1 -5 11 -11
14 -11 21 -3 29 7 7 12 9 12 5 0 -4 10 -2 23 5 12 7 26 11 30 10 8 -2 37 22
37 32 0 2 -13 20 -30 38 -33 36 -38 59 -15 82 12 12 22 13 41 6 23 -9 25 -8
19 12 -4 13 -11 27 -15 32 -12 12 -1 36 16 36 9 0 14 9 13 23 -4 41 1 53 23
54 35 3 40 25 11 55 -28 29 -26 31 20 28 19 -1 27 3 27 15 0 9 9 34 19 56 18
37 21 105 5 131 -5 8 29 17 61 16 11 -1 28 -10 39 -20 11 -10 22 -15 25 -12 3
3 0 8 -6 12 -18 11 -42 87 -33 102 5 7 4 24 -1 37 -5 12 -5 23 0 23 22 0 78
-26 94 -44 17 -19 17 -18 -1 9 -29 46 -34 65 -17 71 13 5 12 10 -1 37 -15 28
-15 31 1 43 13 10 15 21 10 58 -7 46 0 57 23 34 8 -8 16 -5 30 12 19 24 19 25
0 51 -15 19 -18 33 -12 50 11 32 10 29 19 76 4 23 14 44 22 47 8 3 12 10 9 15
-8 12 19 33 41 31 10 -1 24 -2 31 -1 17 1 15 48 -3 55 -20 7 -8 36 16 36 10 0
19 5 19 10 0 6 -4 10 -10 10 -5 0 -10 7 -10 15 0 8 7 15 15 15 8 0 15 -5 15
-11 0 -6 7 -4 15 5 19 19 19 26 -2 43 -17 13 -17 14 5 29 27 20 28 49 3 71
-20 16 -18 35 4 63 7 8 11 23 10 32 -2 9 3 22 11 29 8 6 14 18 14 25 0 8 5 14
11 14 5 0 7 5 3 12 -4 6 -8 22 -10 35 -2 17 4 25 21 29 21 5 23 10 19 37 -3
18 -8 38 -10 45 -5 18 14 53 29 51 36 -4 40 1 18 25 -19 20 -20 27 -10 50 7
14 16 26 21 26 4 0 8 9 8 21 0 11 -4 17 -10 14 -16 -10 -12 21 5 35 8 7 15 18
15 26 0 7 6 19 13 26 16 17 20 38 7 38 -12 0 -1 62 13 71 5 4 5 9 -2 13 -20
13 -12 45 12 51 19 5 22 12 20 55 -2 52 5 60 31 35 8 -8 16 -15 19 -15 2 0 4
7 4 15 0 8 -6 15 -13 15 -41 0 -70 83 -39 113 8 8 11 17 8 20 -3 3 6 9 20 12
33 9 44 58 21 93 -20 30 -12 64 23 96 l27 25 -26 10 c-26 10 -42 36 -32 52 5
9 14 8 64 -9 8 -2 4 3 -8 13 -19 14 -23 24 -18 48 5 23 2 33 -13 43 -30 22
-14 69 25 70 58 3 57 3 44 19 -7 8 -9 15 -4 15 5 1 -3 8 -18 16 -43 23 -36 40
15 35 24 -3 22 25 -3 32 -23 6 -27 42 -5 50 12 5 12 10 0 34 -8 15 -12 36 -9
45 3 10 -2 19 -14 22 -14 5 -18 13 -14 31 5 27 29 33 62 15 27 -15 33 4 10 33
-11 14 -20 32 -20 41 0 9 -5 16 -11 16 -20 0 -4 44 20 56 46 24 56 68 16 78
-29 7 -34 40 -9 50 9 4 14 9 11 12 -3 4 1 13 9 22 11 10 12 18 5 25 -20 20
-12 38 12 33 14 -2 24 1 24 8 0 7 -11 11 -27 8 -23 -3 -28 0 -33 25 -4 18 -1
32 8 39 8 6 16 20 18 30 2 10 8 28 12 38 6 13 3 23 -8 31 -28 20 -19 42 16 36
9 -1 9 23 0 33 -11 10 -14 48 -4 42 20 -13 20 28 0 50 -21 22 -21 25 -6 70 14
44 14 47 -4 51 -18 5 -28 33 -11 33 31 1 38 50 6 50 -8 0 -14 9 -14 20 0 11 4
20 8 20 4 0 13 15 20 33 10 27 10 34 -3 43 -16 12 -11 69 6 80 5 2 6 18 2 34
-3 17 0 36 6 43 8 11 5 17 -14 27 -29 16 -28 30 3 46 19 10 20 12 5 26 -9 10
-13 24 -9 33 6 16 8 16 29 2 20 -13 24 -13 24 -1 0 8 -4 14 -9 14 -5 0 -13 11
-20 25 -8 19 -8 28 3 42 13 16 12 17 -3 5 -13 -10 -22 -11 -37 -2 -24 13 -28
50 -6 50 12 0 13 4 5 19 -16 32 -12 51 12 51 20 0 20 1 5 13 -12 9 -18 31 -20
84 -2 39 -9 78 -15 86 -10 11 -9 17 4 28 14 12 14 14 0 25 -9 6 -17 24 -18 40
-1 16 -10 37 -20 47 -10 10 -18 21 -18 26 0 11 31 36 55 45 15 5 16 9 6 15 -7
5 -12 11 -12 15 0 3 -2 13 -5 21 -7 18 2 45 15 45 5 0 16 -7 25 -15 8 -8 17
-15 20 -15 3 0 3 7 0 15 -4 8 -12 15 -19 15 -20 0 -26 15 -30 66 -1 25 -10 53
-20 64 -15 17 -15 19 1 28 23 13 11 46 -15 39 -12 -3 -22 1 -25 10 -10 25 -7
33 12 33 24 0 64 29 56 41 -3 5 -11 9 -17 8 -29 -4 -47 2 -47 15 0 8 7 16 15
20 23 8 18 23 -10 30 -26 7 -35 41 -13 48 18 6 1 38 -21 38 -29 0 -34 39 -8
61 12 10 25 18 29 19 3 0 4 20 1 45 -3 28 0 45 6 45 6 0 11 5 11 10 0 6 -7 6
-19 -1 -15 -10 -22 -8 -37 7 -19 19 -21 54 -4 54 5 0 12 9 15 21 7 22 -18 59
-42 59 -19 0 -16 28 8 62 18 25 19 32 8 39 -8 5 -20 9 -26 9 -12 0 -17 18 -14
46 1 7 -5 14 -13 17 -8 3 -12 15 -9 29 5 29 -23 98 -41 98 -20 0 -39 27 -32
46 6 15 8 15 26 -1 13 -11 20 -14 20 -6 0 7 5 9 12 5 7 -4 8 -3 4 4 -4 6 -12
9 -19 6 -8 -3 -20 10 -29 29 -15 32 -15 36 0 51 16 16 16 19 -1 48 -13 23 -15
34 -6 44 6 7 8 18 4 25 -6 8 -9 8 -15 -1 -5 -8 -12 -7 -24 5 -19 19 -22 64 -3
66 6 1 -1 4 -18 8 -21 4 -30 12 -30 26 1 11 -4 23 -10 27 -16 12 6 27 47 31
51 5 61 17 15 17 -21 0 -37 5 -37 11 0 13 -38 49 -52 49 -15 0 -8 22 14 40
l22 17 -23 12 c-13 7 -33 10 -46 7 -24 -6 -42 9 -41 34 1 10 12 15 31 15 41 1
42 35 2 46 -45 12 -57 27 -47 55 6 15 6 24 0 24 -6 0 -10 13 -10 29 0 45 -9
59 -46 71 -27 9 -35 17 -33 33 3 40 -1 46 -28 49 -22 2 -28 9 -30 30 -2 33
-36 73 -64 74 -10 1 -24 2 -29 3 -6 0 -8 11 -5 24 5 18 0 26 -20 37 -14 7 -28
24 -31 36 -3 13 -16 30 -29 38 -24 16 -37 57 -24 78 5 7 2 22 -6 35 -8 12 -15
27 -15 33 0 17 28 11 39 -7 5 -10 13 -14 17 -10 4 4 1 13 -8 20 -32 26 -58
181 -33 191 26 10 16 36 -27 76 -41 37 -42 39 -28 67 19 38 18 48 -4 48 -10 0
-22 10 -27 23 -8 22 -2 27 27 23 14 -2 9 56 -7 75 -6 7 -9 33 -7 58 3 43 1 47
-55 99 -40 38 -55 60 -51 71 8 20 33 20 70 1 15 -8 31 -12 34 -8 3 3 -1 8 -9
11 -20 7 -71 64 -71 78 0 7 -13 25 -29 40 -17 15 -28 31 -25 36 3 4 -11 17
-30 29 -19 11 -33 26 -30 33 3 7 -2 25 -10 41 -17 32 -13 47 12 44 49 -4 51
18 3 39 -22 10 -31 23 -41 60 -19 76 -23 80 -107 114 -24 9 -32 18 -31 35 2
13 6 23 10 23 13 0 0 68 -19 97 -10 15 -17 28 -15 30 6 8 1 23 -9 23 -16 0
-70 60 -63 71 3 5 -2 9 -10 9 -8 0 -21 6 -28 13 -20 21 -54 37 -76 37 -25 0
-38 30 -14 31 9 1 20 1 25 0 4 0 7 3 7 9 0 5 -4 10 -10 10 -5 0 -10 11 -10 24
0 20 -4 23 -30 20 -18 -2 -30 1 -30 8 0 15 -31 37 -52 38 -28 0 -21 13 23 40
22 13 34 26 27 28 -28 8 -77 33 -83 43 -4 5 -1 16 5 24 7 9 8 15 2 15 -5 0
-12 -7 -16 -15 -3 -8 -13 -15 -22 -15 -12 0 -15 7 -11 26 3 17 -2 33 -13 44
-17 17 -17 18 1 34 19 16 19 17 -1 38 -11 12 -20 26 -20 31 0 5 -6 5 -13 -1
-8 -7 -18 -7 -27 -2 -8 5 -18 6 -22 4 -4 -3 -8 1 -8 9 0 8 7 18 16 21 15 6 15
8 -2 24 -11 11 -28 17 -43 14 -19 -4 -23 -1 -18 11 3 8 -1 23 -8 34 -8 10 -15
36 -15 58 0 48 -14 65 -52 65 -20 0 -31 8 -42 28 -29 56 -69 88 -158 128 -20
9 -34 22 -32 28 7 19 52 18 63 -2 6 -9 11 -13 11 -8 0 5 6 5 13 0 7 -5 1 1
-13 13 -14 13 -31 23 -37 23 -7 0 -13 4 -13 10 0 5 -7 7 -14 4 -16 -6 -74 22
-93 46 -7 8 -9 24 -6 35 13 43 9 50 -27 50 -28 0 -35 4 -35 20 -1 12 -11 31
-23 43 -12 12 -22 31 -22 43 0 33 -36 75 -79 92 -47 19 -84 63 -78 94 2 12 0
20 -4 17 -5 -3 -9 -1 -9 3 0 8 -76 46 -95 47 -5 1 -10 16 -9 33 0 18 -2 30 -6
28 -3 -2 -14 5 -23 16 -10 11 -23 17 -30 13 -6 -4 -9 -4 -5 1 5 5 -8 19 -27
32 -32 22 -40 34 -36 57 3 16 -11 46 -19 41 -12 -7 -71 16 -64 26 3 5 0 9 -5
9 -13 0 -10 22 4 33 6 5 1 6 -11 3 -24 -7 -72 15 -99 44 -20 22 -13 55 11 46
8 -3 12 -2 9 3 -3 6 -23 10 -43 9 -41 0 -106 27 -98 41 3 5 -15 16 -40 26 -45
17 -81 55 -70 74 11 18 -6 42 -25 36 -39 -13 -133 63 -144 117 -4 16 -11 26
-16 23 -5 -4 -14 5 -20 19 -7 14 -16 23 -20 20 -5 -3 -9 -1 -9 4 0 5 -6 9 -14
9 -24 0 -95 57 -105 86 -6 15 -15 27 -21 27 -6 0 -8 5 -5 10 3 6 0 10 -7 10
-25 1 -60 39 -54 58 4 11 0 24 -7 31 -11 8 -19 6 -37 -9 -22 -19 -23 -19 -50
0 -15 11 -30 17 -34 13 -3 -3 -6 -2 -6 4 0 6 -9 13 -20 16 -12 3 -20 14 -20
26 0 18 -3 19 -25 9 -21 -10 -28 -8 -40 8 -8 10 -15 31 -15 47 0 30 -3 32 -32
16 -17 -9 -24 -6 -49 22 -16 18 -29 36 -29 40 0 13 -40 31 -71 33 -40 3 -45
12 -27 50 16 32 16 34 -5 45 -12 6 -47 12 -77 13 -47 3 -55 6 -55 23 0 26 -14
47 -26 39 -5 -3 -7 -9 -4 -14 6 -9 -12 -23 -32 -26 -13 -2 -15 2 -17 29 -1 6
-3 14 -6 17 -3 3 -10 13 -15 23 -6 11 -28 25 -49 32 -22 8 -42 19 -46 25 -5 9
-17 9 -45 1 -54 -15 -76 6 -37 35 15 12 14 13 -10 8 -15 -2 -30 0 -33 6 -3 5
-19 10 -36 10 -16 0 -29 4 -29 9 0 9 -56 25 -77 22 -7 -1 -13 4 -13 11 0 6
-12 25 -27 40 -27 28 -57 36 -68 18 -10 -16 -55 -12 -55 5 0 8 -9 15 -20 15
-26 0 -25 8 2 37 12 13 17 24 12 24 -5 1 -28 2 -51 3 -41 1 -57 9 -59 27 -1 5
-2 14 -3 19 0 6 -8 10 -16 10 -9 0 -33 9 -55 20 -30 16 -45 18 -65 10 -38 -14
-48 -12 -42 9 3 11 -4 26 -15 36 -22 19 -51 13 -42 -9 5 -14 -13 -33 -22 -23
-13 12 -12 51 2 72 15 23 5 43 -16 30 -16 -10 -80 18 -80 35 0 23 -29 60 -46
60 -11 0 -13 -6 -9 -20 7 -23 -10 -60 -29 -60 -8 0 -16 9 -19 20 -3 13 -14 20
-30 20 -14 0 -29 5 -32 10 -4 6 -10 8 -14 6 -9 -6 -51 47 -51 64 0 6 -16 26
-35 45 -33 31 -38 33 -63 22 -15 -6 -29 -14 -32 -18 -3 -3 -14 -9 -25 -13 -13
-5 -15 -10 -7 -13 16 -6 15 -32 -2 -39 -23 -9 -55 14 -70 50 -11 28 -18 33
-38 29 -15 -3 -33 3 -48 17 -14 12 -18 18 -10 14 13 -7 13 -5 1 9 -7 9 -11 23
-8 31 7 18 -15 27 -34 15 -8 -5 -26 -9 -40 -9 -16 0 -32 -9 -41 -22 -14 -21
-14 -21 -51 16 -28 28 -43 35 -62 32 -20 -4 -25 -1 -23 12 2 9 -3 16 -9 14 -7
-1 -13 3 -13 9 0 5 -5 7 -11 3 -7 -4 -10 7 -8 32 3 51 -16 89 -36 72 -11 -11
-11 -16 1 -35 13 -21 12 -23 -16 -38 -16 -9 -30 -19 -30 -24 0 -11 -59 -23
-72 -15 -5 3 4 17 19 30 18 16 24 27 17 32 -6 4 -16 16 -22 27 -6 11 -12 15
-12 8 0 -21 -40 -1 -40 21 -1 24 -22 56 -38 56 -5 0 -13 -7 -16 -16 -4 -9 -9
-14 -12 -11 -4 3 -16 -3 -27 -14 -24 -22 -43 -20 -41 5 1 11 -6 16 -27 16 -16
0 -29 5 -29 10 0 6 -9 10 -20 10 -11 0 -20 5 -20 12 0 9 -3 9 -12 0 -10 -10
-10 -15 -1 -20 21 -13 19 -44 -4 -53 -17 -6 -23 -4 -28 12 -4 10 -10 19 -14
19 -5 0 -8 10 -7 23 1 15 -4 21 -14 19 -8 -2 -40 -5 -71 -7 -31 -1 -65 -8 -77
-14 -28 -15 -54 -4 -47 20 5 14 1 19 -10 19 -13 0 -16 7 -13 28 2 17 -2 34
-10 42 -12 11 -13 8 -7 -19 6 -27 4 -31 -14 -31 -11 0 -23 5 -26 10 -3 6 -15
10 -27 10 -18 0 -20 4 -14 33 l6 32 -15 -25 c-8 -14 -15 -20 -15 -15 0 7 -3 7
-8 0 -4 -5 -22 -18 -40 -28 -32 -18 -54 -16 -51 6 4 30 -3 45 -25 55 -27 12
-41 -3 -26 -28 11 -17 2 -40 -16 -40 -8 0 -14 10 -14 24 0 14 -4 27 -10 31 -5
3 -7 12 -4 19 3 8 1 17 -5 21 -7 3 -8 0 -5 -9 8 -22 -33 -24 -92 -4 -48 16
-94 15 -94 -2 0 -5 -23 -13 -52 -19 -59 -13 -77 -1 -53 35 8 13 10 26 4 35 -8
12 -10 12 -19 -1 -5 -8 -10 -20 -10 -26 0 -27 -62 -21 -68 5 -2 8 2 26 9 39
14 26 3 56 -22 58 -20 1 -49 -15 -49 -27 0 -6 5 -7 10 -4 6 3 11 1 11 -4 1 -6
2 -17 3 -23 2 -14 -40 -57 -58 -59 -22 -3 -41 3 -56 17 -8 7 -25 22 -37 34
-13 11 -26 20 -31 20 -4 0 -13 9 -20 20 -13 21 -42 28 -42 10 0 -15 -40 -51
-50 -45 -5 3 -6 22 -3 42 5 27 3 34 -6 29 -6 -4 -23 -1 -36 8 -34 23 -38 20
-31 -18 6 -29 3 -37 -15 -46 -12 -7 -35 -9 -53 -5 -17 3 -46 9 -64 12 -29 5
-33 8 -28 28 6 25 -1 55 -13 55 -4 0 -6 -13 -3 -29 5 -38 -41 -92 -85 -97 -26
-3 -36 2 -52 24 -17 24 -18 31 -6 64 7 21 10 40 6 44 -3 4 11 4 31 1 29 -4 36
-3 31 9 -3 7 -9 11 -14 8 -5 -3 -9 0 -9 6 0 16 -40 -8 -47 -28 -15 -47 -36
-83 -53 -92 -24 -13 -30 -13 -30 3 0 6 -23 23 -51 37 l-50 25 -17 -21 c-9 -12
-25 -24 -34 -27 -15 -5 -18 -1 -18 23 0 17 4 30 9 30 5 0 12 7 15 16 4 11 2
15 -8 11 -11 -4 -13 1 -11 25 3 16 10 36 16 44 26 31 -22 13 -59 -22 -20 -20
-31 -33 -24 -29 19 10 15 1 -15 -33 -20 -23 -38 -32 -63 -34 -19 -1 -41 -6
-47 -11 -9 -6 -18 -5 -28 3 -14 12 -14 15 0 30 8 9 15 22 15 29 0 7 4 10 8 7
5 -3 7 5 6 17 -1 12 -3 27 -3 33 -1 13 -51 26 -51 13z"/>
<path d="M12075 18870 c-3 -5 -1 -10 4 -10 6 0 11 5 11 10 0 6 -2 10 -4 10 -3
0 -8 -4 -11 -10z"/>
<path d="M7580 18774 c0 -8 5 -12 10 -9 6 3 10 -1 10 -9 0 -8 -4 -18 -10 -21
-13 -8 -13 -25 1 -25 5 0 8 4 4 9 -3 5 -1 12 5 16 15 9 12 42 -5 49 -9 3 -15
0 -15 -10z"/>
<path d="M6155 18228 c7 -18 42 -31 51 -17 3 5 -3 9 -13 9 -11 0 -25 6 -32 13
-10 10 -11 9 -6 -5z"/>
<path d="M15088 17467 c-3 -19 -2 -25 4 -19 6 6 8 18 6 28 -3 14 -5 12 -10 -9z"/>
<path d="M3843 16835 c0 -8 4 -12 9 -9 5 3 6 10 3 15 -9 13 -12 11 -12 -6z"/>
<path d="M3519 16493 c0 -4 -2 -19 -5 -32 -4 -20 -2 -22 10 -11 9 6 20 9 26 5
5 -3 10 1 10 9 0 15 -39 43 -41 29z"/>
<path d="M3511 16414 c0 -11 3 -14 6 -6 3 7 2 16 -1 19 -3 4 -6 -2 -5 -13z"/>
<path d="M2071 14554 c0 -11 3 -14 6 -6 3 7 2 16 -1 19 -3 4 -6 -2 -5 -13z"/>
<path d="M17835 14430 c3 -5 8 -10 11 -10 2 0 4 5 4 10 0 6 -5 10 -11 10 -5 0
-7 -4 -4 -10z"/>
<path d="M18000 14123 c0 -1 9 -7 19 -12 14 -8 20 -7 24 2 3 8 -4 13 -19 13
-13 0 -24 -1 -24 -3z"/>
<path d="M18940 9391 c0 -6 4 -13 10 -16 6 -3 7 1 4 9 -7 18 -14 21 -14 7z"/>
<path d="M1113 9069 c-12 -12 -6 -49 8 -49 14 0 19 18 11 39 -5 16 -11 18 -19
10z"/>
<path d="M1330 8089 c0 -5 5 -7 10 -4 6 3 10 8 10 11 0 2 -4 4 -10 4 -5 0 -10
-5 -10 -11z"/>
<path d="M15880 3195 c0 -8 4 -15 10 -15 5 0 7 7 4 15 -4 8 -8 15 -10 15 -2 0
-4 -7 -4 -15z"/>
<path d="M15370 2816 c0 -2 7 -7 16 -10 8 -3 12 -2 9 4 -6 10 -25 14 -25 6z"/>
<path d="M7407 1423 c-4 -3 -7 -13 -7 -22 1 -13 3 -13 11 2 11 19 8 33 -4 20z"/>
<path d="M11447 1063 c-11 -11 -8 -20 7 -20 8 0 12 6 9 14 -6 15 -7 15 -16 6z"/>
<path d="M9035 1050 c-3 -5 -1 -10 4 -10 6 0 11 5 11 10 0 6 -2 10 -4 10 -3 0
-8 -4 -11 -10z"/>
</g>
</svg>
