<?xml version="1.0" standalone="no"?>
<!DOCTYPE svg PUBLIC "-//W3C//DTD SVG 20010904//EN"
 "http://www.w3.org/TR/2001/REC-SVG-20010904/DTD/svg10.dtd">
<svg version="1.0" xmlns="http://www.w3.org/2000/svg"
 width="2448.000000pt" height="2448.000000pt" viewBox="0 0 2448.000000 2448.000000"
 preserveAspectRatio="xMidYMid meet">
<metadata>
Created by potrace 1.14, written by Peter Selinger 2001-2017
</metadata>
<g transform="translate(0.000000,2448.000000) scale(0.100000,-0.100000)"
fill="#000000" stroke="none">
<path d="M20278 15915 c-1 -1 -27 -6 -56 -9 -30 -3 -75 -11 -100 -17 -26 -6
-54 -12 -62 -14 -8 -2 -42 -10 -75 -19 -33 -9 -67 -19 -75 -21 -8 -2 -66 -22
-129 -43 l-113 -40 59 -38 c86 -57 88 -58 213 -122 102 -52 177 -85 290 -127
42 -16 75 -27 75 -25 0 1 12 -3 28 -9 15 -6 38 -13 50 -15 12 -3 32 -7 45 -10
12 -4 32 -8 45 -11 56 -14 188 -36 252 -42 137 -13 374 -7 425 11 8 3 29 7 45
10 50 8 219 62 270 86 11 5 44 19 73 31 46 19 68 39 43 39 -4 0 -19 10 -32 23
-38 36 -186 131 -274 174 -136 68 -303 127 -415 148 -63 12 -142 26 -174 31
-35 5 -402 14 -408 9z"/>
<path d="M18958 15285 c-82 -85 -114 -120 -187 -207 -46 -53 -171 -240 -171
-254 0 -7 -3 -14 -7 -16 -7 -3 -55 -93 -58 -108 0 -3 -6 -15 -13 -27 -7 -13
-10 -23 -8 -23 3 0 -3 -19 -13 -42 -72 -171 -84 -436 -30 -640 20 -77 108
-294 133 -328 6 -8 16 -24 22 -35 45 -82 70 -125 95 -161 16 -24 29 -47 29
-52 0 -18 30 -21 70 -7 22 8 41 14 43 13 1 0 36 9 77 21 41 12 93 26 115 32
22 6 51 15 65 20 14 5 39 10 55 13 17 2 30 5 30 6 0 1 7 3 15 5 42 11 98 24
120 29 14 3 35 7 46 10 12 2 37 7 55 10 19 3 45 8 59 11 14 3 48 8 75 11 28 4
53 8 57 10 12 7 224 18 343 18 161 -1 294 -14 405 -39 14 -3 39 -7 55 -10 47
-7 187 -41 215 -52 8 -3 20 -7 25 -8 48 -12 259 -89 340 -125 54 -23 377 -184
430 -213 33 -19 83 -47 110 -62 28 -15 62 -36 76 -46 l26 -18 89 92 c133 139
236 268 321 402 63 98 162 337 178 424 3 19 7 37 9 40 16 27 24 283 12 379
-13 100 -102 321 -208 515 -20 38 -43 46 -76 28 -9 -5 -30 -12 -47 -15 -36 -6
-94 -22 -115 -30 -8 -3 -26 -7 -40 -10 -14 -2 -65 -14 -115 -26 -49 -12 -100
-24 -112 -26 -13 -2 -35 -6 -50 -9 -26 -5 -56 -10 -123 -20 -14 -2 -25 -4 -25
-5 0 -1 -22 -3 -48 -6 -27 -2 -72 -8 -100 -12 -61 -9 -413 -8 -507 2 -94 10
-142 16 -171 21 -14 3 -41 7 -60 10 -96 13 -227 42 -339 75 -58 17 -112 32
-120 34 -8 2 -42 15 -75 27 -33 13 -62 24 -65 24 -3 1 -16 6 -30 12 -210 88
-303 132 -312 146 -4 7 -8 9 -8 5 0 -4 -31 11 -70 33 -38 21 -74 39 -80 39 -5
0 -10 3 -10 8 0 4 -23 18 -50 31 -28 14 -50 29 -50 33 0 4 -5 8 -10 8 -6 0
-54 28 -108 63 l-97 63 -87 -91z"/>
<path d="M349 15333 c0 -10 -3 -27 -5 -38 -2 -11 -6 -31 -9 -45 -2 -14 -4 -25
-5 -25 -1 0 -4 -11 -6 -25 -2 -14 -16 -81 -30 -150 -14 -69 -26 -134 -28 -145
-2 -11 -7 -38 -11 -60 -5 -22 -10 -49 -11 -60 -1 -11 -3 -21 -4 -22 -3 -4 -5
-11 -15 -68 -4 -27 -9 -54 -11 -60 -1 -5 -5 -23 -8 -40 -9 -47 -15 -76 -26
-130 -6 -27 -12 -61 -15 -75 -3 -14 -7 -36 -10 -50 -5 -27 -12 -63 -20 -107
-3 -16 -12 -59 -20 -98 -8 -38 -17 -86 -20 -105 -3 -19 -12 -62 -20 -95 -7
-33 -16 -80 -20 -105 -4 -24 -8 -47 -10 -50 -2 -4 -7 -29 -11 -56 -3 -27 -8
-52 -10 -55 -2 -4 -6 -24 -10 -44 -3 -21 -7 -46 -9 -56 -4 -18 11 -19 410 -19
228 0 416 -3 418 -7 3 -6 -24 -161 -32 -180 -2 -6 -3 -9 -5 -28 -6 -43 -20
-117 -36 -185 -5 -25 -12 -56 -14 -70 -5 -33 -46 -240 -52 -265 -3 -11 -7 -31
-9 -45 -2 -14 -23 -119 -45 -235 -23 -115 -44 -221 -47 -235 -2 -14 -11 -59
-20 -100 -8 -41 -17 -86 -19 -100 -3 -14 -16 -79 -29 -145 -13 -66 -26 -133
-29 -150 -3 -16 -8 -41 -11 -55 -3 -14 -8 -38 -11 -55 -5 -33 -8 -48 -17 -85
-4 -14 -9 -38 -11 -55 -3 -16 -7 -41 -10 -55 -3 -14 -10 -50 -16 -80 -15 -82
-19 -100 -24 -118 -3 -9 -7 -33 -10 -52 -3 -19 -8 -46 -11 -60 -3 -14 -8 -36
-10 -50 -6 -37 -44 -225 -61 -303 -6 -28 -11 -58 -18 -107 -2 -14 -5 -25 -6
-25 -3 0 -16 -64 -25 -130 -4 -22 -8 -48 -11 -57 -5 -17 -10 -43 -19 -88 -4
-25 -43 -218 -51 -255 -2 -11 -6 -36 -9 -55 -3 -19 -9 -50 -14 -68 -5 -18 -10
-35 -10 -37 -1 -3 -1 -6 -2 -7 0 -2 -2 -12 -3 -23 -4 -27 -14 -85 -21 -115
-12 -52 -26 -126 -31 -160 -3 -19 -7 -43 -10 -52 -13 -43 -16 -68 -17 -136 -1
-41 1 -76 6 -79 4 -2 5 -8 2 -14 -8 -11 12 -120 32 -179 9 -25 16 -49 17 -55
4 -17 58 -118 89 -165 52 -79 231 -240 267 -240 4 0 10 -3 12 -8 3 -7 150 -82
161 -82 3 0 18 -5 34 -12 15 -6 30 -12 33 -13 3 0 21 -6 41 -13 20 -7 45 -15
55 -17 10 -2 46 -11 79 -19 74 -18 118 -26 168 -31 21 -2 46 -6 55 -9 42 -12
194 -20 397 -20 244 -1 325 5 506 35 68 11 136 22 151 24 15 2 35 6 45 9 10 3
31 7 47 10 16 3 52 10 80 16 28 6 61 12 74 15 35 6 38 10 52 72 17 73 17 72
20 81 2 4 4 12 5 17 1 6 7 28 13 50 6 22 13 51 16 65 3 14 10 43 16 65 6 22
13 49 15 60 14 60 68 272 72 285 3 8 7 22 8 30 4 21 43 175 60 235 8 28 20 73
26 100 13 59 12 57 39 160 12 44 23 91 26 105 3 14 9 39 15 56 5 17 12 41 14
53 2 13 7 31 10 41 3 10 8 27 10 37 2 10 8 37 13 61 5 23 8 42 6 42 -9 0 -149
-76 -155 -83 -3 -5 -12 -9 -20 -10 -8 -2 -21 -7 -29 -12 -8 -5 -17 -10 -20
-10 -3 -1 -25 -10 -50 -21 -80 -36 -194 -57 -240 -44 -69 20 -100 89 -101 226
0 33 5 73 11 88 7 19 7 25 -1 20 -8 -4 -8 -1 -1 12 5 11 12 35 16 54 3 19 9
46 12 60 3 14 7 34 8 45 3 19 30 152 41 205 3 14 8 41 11 60 4 19 9 44 11 55
2 11 6 29 8 40 2 11 6 31 9 45 3 14 10 50 16 80 6 30 12 66 15 80 3 14 8 39
11 55 3 17 9 48 14 70 11 47 20 100 25 137 2 15 6 31 8 35 3 4 8 24 11 43 3
19 10 60 16 90 6 30 13 66 15 80 3 14 7 36 10 50 3 14 8 41 11 60 4 19 9 44
11 55 26 127 41 201 41 215 1 8 5 33 11 55 9 37 12 51 26 130 3 17 8 37 10 45
2 8 7 30 10 47 4 27 34 179 51 258 8 43 14 71 19 100 3 17 11 59 19 95 8 36
12 68 9 73 -2 4 0 7 5 7 6 0 9 6 9 13 -2 10 12 89 28 167 3 14 8 40 11 59 8
45 10 59 24 111 6 25 11 52 12 60 0 8 5 35 10 60 5 25 11 54 13 65 2 16 14 76
21 108 1 4 2 12 3 17 1 6 158 10 450 10 l449 0 6 28 c4 15 9 43 11 62 3 19 7
42 8 50 5 21 16 80 21 110 2 14 16 88 31 165 14 77 28 149 30 160 1 11 6 38
10 60 3 22 8 49 10 60 2 11 22 119 44 240 40 215 45 244 56 295 3 14 8 42 11
64 3 21 8 48 10 60 18 85 23 119 18 127 -3 5 -1 9 4 9 5 0 8 10 8 23 -1 12 0
27 3 32 6 12 9 25 17 80 3 22 8 47 11 55 2 8 7 33 9 55 3 22 7 46 9 53 3 9
-373 12 -1860 12 -1769 0 -1865 -1 -1866 -17z"/>
<path d="M6347 13815 c-1 -2 -47 -5 -102 -9 -149 -10 -229 -19 -337 -40 -13
-3 -50 -10 -83 -16 -79 -16 -229 -55 -329 -86 -187 -59 -514 -194 -524 -216
-2 -5 -9 -8 -16 -8 -14 0 -69 -28 -154 -79 -29 -17 -55 -31 -57 -31 -6 0 -109
-64 -115 -71 -3 -3 -21 -14 -40 -24 -19 -10 -37 -21 -40 -24 -3 -3 -25 -20
-50 -36 -25 -17 -49 -33 -55 -38 -5 -4 -57 -43 -115 -86 -58 -44 -119 -92
-137 -108 -18 -15 -53 -46 -79 -68 -54 -45 -294 -283 -339 -336 -111 -128
-224 -274 -286 -369 -87 -132 -129 -201 -129 -210 0 -6 -5 -10 -11 -10 -5 0
-8 -4 -4 -9 3 -5 1 -12 -5 -16 -12 -8 -150 -287 -155 -316 -2 -12 -8 -26 -14
-33 -5 -6 -28 -67 -51 -136 -62 -186 -97 -341 -118 -525 -9 -80 -9 -396 1
-465 4 -30 9 -68 12 -85 6 -50 15 -98 25 -135 5 -19 11 -44 13 -55 2 -11 7
-27 10 -35 4 -8 8 -24 10 -35 1 -11 6 -26 10 -32 5 -7 6 -13 3 -13 -2 0 11
-39 30 -87 19 -49 34 -94 34 -100 0 -7 5 -13 12 -13 6 0 9 -3 5 -6 -3 -3 8
-31 24 -62 16 -31 29 -62 29 -69 0 -7 4 -13 9 -13 5 0 13 -10 17 -22 4 -13 20
-42 35 -65 16 -23 29 -45 29 -50 0 -4 10 -20 23 -35 13 -15 36 -47 52 -72 16
-26 33 -46 37 -46 4 0 8 -6 8 -14 0 -8 3 -16 8 -18 4 -1 31 -31 61 -66 30 -35
84 -91 119 -125 36 -34 73 -69 81 -77 9 -8 45 -37 81 -65 36 -27 67 -52 70
-55 15 -15 71 -50 80 -50 5 0 10 -4 10 -10 0 -5 4 -10 10 -10 5 0 26 -12 47
-26 90 -61 430 -210 523 -229 8 -2 35 -8 60 -15 25 -7 52 -13 60 -15 8 -2 26
-6 40 -9 14 -3 37 -8 53 -11 15 -3 38 -7 51 -10 14 -3 44 -7 68 -10 24 -2 63
-8 88 -12 63 -10 454 -10 580 0 168 14 275 26 360 42 14 3 40 7 58 10 17 3 47
7 65 10 17 3 46 8 62 12 17 3 39 7 50 9 16 3 222 55 270 68 6 2 24 6 40 11 76
19 290 92 390 132 61 25 115 46 121 47 7 1 19 8 28 15 9 7 16 10 16 7 0 -4 12
0 28 8 15 8 77 39 137 69 178 88 347 183 353 199 2 4 10 8 17 8 13 0 18 15 30
85 7 43 13 74 19 93 3 9 8 37 11 62 4 24 8 47 10 50 2 3 6 23 9 45 4 22 16 82
27 135 11 52 22 107 24 123 3 15 7 42 11 60 3 17 10 52 15 77 6 25 13 56 15
70 2 14 7 39 11 55 3 17 8 37 9 45 3 19 13 67 21 105 4 17 8 39 9 50 1 11 5
31 8 45 4 14 8 36 11 50 2 14 9 50 15 80 6 30 13 66 16 80 2 14 7 36 10 50 8
35 12 52 18 96 4 22 12 57 18 79 6 22 12 51 13 65 3 24 9 56 20 110 3 14 8 41
11 60 3 19 8 38 11 43 17 28 -27 -10 -136 -117 -129 -128 -282 -275 -349 -335
-88 -80 -260 -221 -271 -221 -6 0 -11 -4 -11 -9 0 -5 -48 -40 -107 -80 -60
-39 -112 -74 -118 -79 -20 -17 -213 -111 -286 -140 -75 -30 -197 -67 -254 -76
-16 -3 -50 -9 -75 -14 -114 -21 -316 -11 -425 22 -103 31 -273 131 -370 218
-16 14 -40 35 -53 46 l-23 20 73 42 c40 24 93 55 118 70 25 15 106 62 180 105
74 43 146 85 160 94 14 9 34 21 45 27 11 6 72 41 135 79 63 37 133 77 155 89
22 11 42 24 45 27 3 3 21 14 40 25 19 10 37 22 40 25 3 3 20 11 38 18 17 8 32
17 32 22 0 4 10 11 23 15 12 4 40 18 62 33 22 14 43 24 48 23 4 -1 7 2 7 8 0
5 7 10 15 10 8 0 15 5 15 10 0 6 4 10 9 10 8 0 215 118 281 160 8 5 60 35 114
67 55 32 118 69 140 82 23 13 50 29 61 35 25 14 174 102 378 223 87 51 162 93
167 93 6 0 10 5 10 10 0 6 4 10 9 10 7 0 65 31 111 60 36 23 372 220 375 220
2 0 32 17 66 39 64 38 64 39 62 82 -3 67 -12 151 -19 179 -3 14 -7 34 -9 45
-1 11 -8 38 -14 60 -6 22 -11 45 -12 50 -1 6 -11 35 -21 65 -11 30 -21 60 -22
65 -9 42 -133 286 -148 293 -5 2 -8 10 -8 17 0 7 -3 15 -7 17 -5 2 -26 30 -48
62 -22 33 -44 64 -50 70 -5 6 -35 41 -65 76 -55 67 -157 169 -226 228 -58 50
-201 152 -212 152 -6 0 -12 4 -14 8 -7 18 -220 131 -325 173 -13 5 -33 13 -45
18 -13 5 -41 15 -63 22 -22 6 -46 16 -52 22 -7 5 -13 7 -13 4 0 -4 -18 0 -39
8 -22 7 -55 16 -74 19 -19 3 -47 10 -63 16 -16 6 -29 11 -29 9 0 -1 -63 7
-130 17 -72 12 -359 26 -368 19z"/>
<path d="M12060 13809 c-19 -4 -60 -11 -90 -14 -30 -4 -58 -9 -62 -11 -5 -3
-21 -8 -36 -10 -101 -18 -502 -189 -502 -214 0 -5 -10 -12 -22 -16 -47 -14
-254 -173 -360 -275 l-47 -46 -15 46 c-9 25 -19 60 -22 76 -10 39 -12 311 -4
350 14 65 93 60 -1002 60 -549 0 -998 -2 -999 -5 0 -3 -2 -12 -4 -20 -11 -51
-16 -73 -20 -97 -3 -16 -12 -59 -20 -98 -8 -38 -17 -86 -21 -105 -3 -19 -7
-39 -8 -45 -2 -5 -7 -32 -11 -60 -10 -56 -9 -50 -18 -90 -4 -16 -9 -42 -11
-58 -3 -15 -7 -35 -10 -45 -3 -9 -7 -33 -10 -52 -3 -19 -12 -68 -20 -107 -9
-40 -18 -85 -21 -100 -3 -16 -7 -41 -10 -58 -4 -16 -13 -61 -21 -100 -8 -38
-17 -86 -20 -105 -3 -19 -9 -51 -14 -70 -5 -19 -11 -52 -14 -72 -3 -21 -10
-57 -15 -80 -16 -71 -22 -101 -27 -138 -3 -19 -9 -51 -14 -70 -5 -19 -12 -48
-14 -65 -5 -28 -8 -43 -21 -105 -2 -14 -7 -38 -10 -55 -3 -16 -8 -39 -10 -50
-2 -11 -6 -33 -10 -50 -3 -16 -14 -75 -25 -130 -11 -55 -22 -111 -25 -125 -3
-14 -7 -36 -10 -50 -2 -14 -9 -47 -15 -75 -6 -27 -12 -63 -15 -80 -2 -16 -9
-50 -15 -75 -5 -25 -12 -56 -14 -70 -4 -22 -27 -142 -40 -210 -3 -14 -7 -36
-10 -50 -6 -27 -22 -108 -31 -152 -3 -16 -8 -40 -11 -55 -3 -15 -6 -40 -7 -55
-1 -15 -6 -28 -11 -28 -5 0 -7 -2 -4 -5 3 -4 1 -25 -4 -48 -5 -23 -11 -53 -13
-67 -3 -14 -7 -36 -10 -50 -3 -14 -7 -36 -10 -50 -3 -14 -7 -36 -10 -50 -5
-26 -23 -117 -31 -160 -3 -14 -7 -32 -9 -40 -3 -8 -7 -38 -11 -65 -3 -27 -8
-53 -10 -57 -5 -8 -9 -25 -18 -79 -3 -19 -12 -66 -20 -104 -23 -108 -26 -128
-31 -160 -3 -16 -9 -50 -15 -75 -5 -25 -12 -56 -14 -70 -3 -14 -7 -36 -11 -50
-3 -14 -7 -38 -10 -55 -2 -16 -11 -61 -19 -100 -8 -38 -17 -83 -20 -100 -3
-16 -7 -41 -10 -55 -3 -14 -10 -50 -16 -80 -14 -78 -19 -101 -26 -135 -4 -16
-8 -39 -10 -50 -1 -11 -8 -42 -14 -70 -14 -60 -14 -62 -30 -152 -7 -40 -11
-76 -9 -80 6 -12 2049 -10 2059 2 4 5 11 27 14 49 4 21 8 41 10 45 2 3 7 24
10 46 7 47 17 98 31 158 3 12 12 56 20 97 8 41 17 86 21 100 3 14 7 36 10 50
3 14 12 60 20 102 9 43 17 85 19 95 2 10 4 18 5 18 1 0 3 11 6 25 2 14 9 48
15 75 6 28 13 64 16 80 6 34 7 40 16 75 4 14 9 36 11 50 2 14 18 90 34 170 17
80 33 158 36 174 5 26 27 132 31 146 1 3 5 28 10 55 5 28 10 52 10 55 5 21 25
120 29 140 3 14 17 81 31 150 15 69 28 134 31 145 6 32 24 118 28 140 3 11 9
41 15 68 6 26 14 64 17 85 3 20 9 51 14 67 4 17 11 48 15 70 12 69 23 120 25
120 2 0 8 32 14 70 3 17 9 50 14 75 29 138 52 248 56 270 33 177 61 259 109
325 81 112 195 168 334 164 68 -2 185 -33 191 -50 2 -5 10 -9 18 -9 18 0 114
-98 114 -116 0 -8 4 -14 9 -14 5 0 12 -15 16 -32 15 -72 11 -157 -12 -268 -12
-63 -25 -128 -28 -145 -6 -32 -12 -64 -21 -105 -3 -14 -7 -37 -9 -52 -2 -15
-8 -44 -14 -65 -9 -33 -14 -62 -26 -138 -2 -11 -10 -51 -18 -90 -9 -38 -18
-86 -21 -106 -3 -20 -8 -42 -10 -50 -3 -8 -8 -30 -11 -49 -3 -19 -10 -53 -16
-75 -5 -22 -10 -47 -11 -55 0 -8 -5 -35 -10 -60 -5 -25 -12 -56 -14 -70 -2
-14 -9 -48 -15 -76 -5 -28 -12 -61 -14 -75 -3 -13 -7 -35 -10 -49 -3 -14 -8
-41 -11 -60 -7 -38 -11 -57 -19 -92 -3 -13 -7 -34 -10 -48 -2 -14 -14 -72 -26
-130 -20 -100 -25 -127 -34 -178 -2 -12 -6 -30 -9 -40 -6 -21 -18 -89 -20
-118 -2 -11 -5 -24 -8 -30 -4 -5 -9 -28 -12 -49 -3 -22 -7 -51 -10 -65 -8 -34
-27 -132 -31 -150 -2 -17 -16 -85 -22 -115 -2 -11 -6 -31 -9 -45 -2 -14 -7
-36 -10 -50 -3 -14 -8 -36 -10 -50 -2 -14 -7 -36 -10 -50 -3 -14 -8 -38 -11
-55 -2 -16 -6 -39 -9 -50 -2 -11 -6 -33 -10 -50 -3 -16 -8 -37 -11 -45 -3 -8
-7 -28 -8 -45 -2 -16 -6 -41 -9 -55 -4 -14 -8 -36 -11 -50 -3 -14 -7 -36 -10
-50 -12 -57 -18 -96 -19 -120 l-1 -25 1022 0 1023 0 10 51 c6 28 13 61 15 75
5 24 7 35 25 124 5 28 12 61 14 75 3 14 7 36 10 50 11 48 48 235 51 255 3 21
40 210 50 255 11 54 45 226 49 253 3 15 7 35 10 45 3 9 7 35 11 57 3 22 10 56
15 75 5 19 12 53 15 75 15 88 24 134 31 156 2 9 7 33 9 54 3 20 7 41 10 45 3
4 7 23 10 41 2 19 18 104 35 189 17 85 33 166 36 180 3 14 13 68 24 120 23
115 29 145 36 190 3 19 10 53 16 75 5 22 12 51 14 65 2 14 6 36 8 50 7 34 15
70 20 100 3 14 7 35 10 46 2 12 7 37 10 55 7 43 13 72 25 129 6 25 13 59 15
75 3 17 7 41 11 55 3 14 7 36 10 50 5 30 22 115 30 150 2 14 14 75 25 135 12
61 25 128 31 150 5 22 12 54 14 70 2 17 9 53 15 80 14 64 15 69 25 135 4 30 9
64 11 75 5 26 6 212 1 245 -14 94 -21 122 -38 180 -12 36 -34 93 -50 126 -16
34 -29 66 -29 72 0 6 -3 12 -7 14 -5 2 -26 30 -48 63 -22 33 -43 62 -46 65 -4
3 -22 24 -41 47 -114 136 -371 307 -538 357 -3 1 -10 4 -15 8 -20 13 -240 67
-320 79 -93 13 -344 19 -395 8z"/>
<path d="M17718 13815 c-2 -2 -39 -6 -83 -9 -115 -8 -198 -17 -215 -22 -8 -3
-33 -8 -55 -10 -22 -3 -71 -12 -110 -20 -38 -9 -80 -17 -92 -20 -12 -2 -35 -9
-50 -15 -16 -6 -30 -10 -33 -10 -3 0 -23 -5 -45 -11 -22 -6 -42 -12 -45 -13
-15 -3 -58 -17 -75 -24 -11 -5 -47 -19 -80 -31 -86 -33 -209 -92 -217 -104 -4
-6 -8 -7 -8 -3 0 10 -120 -73 -190 -132 -30 -25 -89 -81 -130 -124 l-77 -78
-26 40 c-15 23 -24 41 -20 41 5 0 3 4 -3 8 -13 9 -48 92 -63 150 -16 56 -22
118 -23 230 -1 57 -6 92 -12 93 -42 4 -1996 3 -1997 -1 0 -3 -2 -12 -4 -20 -7
-31 -106 -526 -110 -550 -2 -14 -7 -36 -10 -50 -10 -43 -18 -94 -19 -112 0
-10 -4 -18 -9 -18 -4 0 -6 -4 -3 -8 2 -4 -2 -39 -11 -77 -8 -39 -16 -79 -18
-90 -1 -11 -6 -31 -9 -45 -4 -14 -9 -38 -11 -55 -2 -16 -4 -30 -5 -30 -2 0 -7
-22 -14 -65 -4 -19 -13 -69 -21 -110 -8 -41 -16 -86 -19 -100 -2 -14 -7 -32
-10 -40 -3 -8 -7 -32 -10 -52 -3 -21 -10 -58 -16 -83 -6 -25 -13 -62 -16 -83
-3 -20 -7 -43 -10 -51 -2 -8 -7 -28 -10 -45 -2 -17 -13 -74 -24 -126 -11 -52
-22 -104 -24 -115 -2 -11 -7 -40 -11 -65 -5 -25 -10 -53 -11 -62 -1 -10 -3
-20 -4 -23 -1 -3 -3 -8 -4 -12 -3 -11 -15 -74 -21 -103 -3 -14 -9 -47 -15 -75
-5 -27 -12 -63 -15 -80 -2 -16 -8 -43 -11 -60 -4 -16 -8 -39 -10 -50 -1 -11
-3 -20 -4 -20 -1 0 -3 -9 -5 -20 -2 -11 -7 -36 -10 -55 -4 -19 -9 -46 -12 -60
-2 -14 -9 -45 -14 -70 -6 -25 -13 -63 -16 -85 -3 -22 -9 -51 -14 -63 -5 -13
-7 -28 -3 -33 3 -5 2 -9 -3 -9 -4 0 -8 -10 -9 -22 0 -13 -4 -41 -8 -63 -5 -22
-8 -46 -9 -52 0 -7 -3 -13 -6 -13 -3 0 -6 -10 -7 -22 0 -13 -4 -39 -8 -58 -7
-37 -33 -168 -41 -210 -3 -14 -8 -40 -11 -59 -6 -33 -9 -51 -19 -93 -3 -13 -8
-38 -10 -57 -3 -18 -7 -36 -9 -40 -3 -3 -7 -27 -11 -51 -3 -25 -10 -61 -15
-80 -5 -19 -11 -48 -14 -65 -7 -45 -23 -127 -29 -151 -3 -12 -8 -37 -11 -55
-3 -19 -8 -45 -11 -59 -7 -35 -14 -70 -20 -105 -3 -16 -10 -50 -15 -75 -5 -25
-12 -56 -14 -70 -2 -14 -7 -36 -10 -50 -3 -14 -8 -37 -11 -52 -3 -16 -7 -40
-10 -55 -3 -16 -8 -39 -11 -53 -3 -14 -8 -36 -10 -50 -2 -14 -6 -36 -9 -50 -3
-14 -10 -47 -15 -75 -6 -27 -12 -61 -15 -75 -3 -14 -8 -41 -11 -60 -8 -47 -12
-65 -14 -65 -1 0 -3 -9 -5 -20 -4 -30 -15 -88 -20 -105 -2 -8 -6 -31 -9 -50
l-5 -35 1085 0 c1172 0 1102 -3 1105 50 0 11 2 27 4 35 18 93 46 229 48 245 2
11 7 31 10 45 6 28 45 222 51 260 2 14 7 36 10 50 4 14 9 39 11 55 2 17 4 30
5 30 3 0 16 68 25 130 3 22 10 54 15 70 5 17 11 46 14 65 3 19 15 82 27 140
11 58 23 116 25 130 2 14 7 36 10 50 3 14 8 36 10 50 4 21 13 66 39 191 2 9 6
34 9 55 4 22 11 55 16 74 5 19 11 51 14 70 7 41 12 66 26 135 11 52 14 66 24
125 4 19 9 42 11 50 2 8 6 33 10 55 3 22 8 48 11 57 4 15 7 25 18 76 4 17 16
91 22 127 2 11 5 31 8 45 25 114 65 313 64 319 0 3 1 8 2 11 2 6 6 26 14 65 3
17 8 41 11 55 3 14 7 36 10 50 2 14 9 48 15 75 17 84 20 99 26 135 15 86 32
136 69 198 41 68 67 98 120 137 22 17 42 32 45 36 3 3 34 14 70 26 61 19 158
23 215 10 122 -30 196 -112 232 -257 9 -38 3 -172 -12 -240 -9 -41 -18 -91
-21 -110 -3 -19 -8 -38 -10 -41 -2 -4 -6 -26 -9 -49 -3 -24 -7 -46 -9 -49 -3
-4 -7 -27 -11 -51 -4 -25 -8 -49 -9 -55 -1 -5 -5 -23 -9 -40 -4 -16 -9 -41
-11 -55 -3 -14 -10 -50 -16 -80 -6 -30 -13 -66 -15 -80 -3 -14 -7 -36 -10 -50
-3 -14 -7 -36 -10 -50 -9 -46 -28 -139 -40 -195 -1 -5 -6 -32 -10 -60 -10 -58
-9 -51 -19 -93 -4 -19 -9 -43 -11 -55 -2 -12 -8 -47 -14 -77 -6 -30 -13 -66
-16 -80 -3 -14 -7 -36 -10 -50 -10 -49 -15 -70 -19 -89 -2 -10 -7 -34 -10 -52
-3 -19 -8 -45 -11 -59 -3 -14 -8 -41 -11 -60 -3 -19 -9 -51 -14 -70 -9 -35
-14 -59 -26 -135 -3 -22 -8 -44 -11 -48 -3 -5 -7 -25 -9 -44 -2 -19 -6 -43 -9
-53 -8 -24 -14 -56 -30 -147 -2 -16 -14 -71 -25 -123 -12 -52 -21 -102 -21
-110 -1 -8 -5 -31 -10 -50 -4 -19 -11 -51 -14 -70 -3 -19 -8 -42 -11 -51 -2
-9 -7 -34 -10 -55 -2 -21 -9 -54 -14 -74 -5 -19 -12 -51 -15 -70 -3 -19 -8
-46 -10 -60 -3 -14 -7 -36 -10 -50 -3 -14 -7 -36 -10 -50 -3 -14 -7 -36 -10
-50 -3 -14 -7 -36 -10 -50 -9 -41 -15 -73 -21 -110 l-6 -35 1041 0 1040 0 10
45 c14 61 42 198 48 235 2 17 11 59 19 95 8 36 16 79 19 95 3 17 8 44 11 60 4
17 8 39 10 50 1 11 7 40 12 65 6 25 14 65 17 90 4 24 8 47 10 51 2 3 7 21 10
40 5 33 10 58 21 109 2 14 9 48 14 75 6 28 12 61 15 75 3 14 8 39 11 55 3 17
11 59 19 95 8 36 16 79 19 95 2 17 6 37 9 45 3 8 8 33 11 55 3 22 10 63 16 90
7 28 14 61 16 75 2 14 7 36 9 50 12 59 17 86 20 105 1 11 3 20 4 20 2 0 4 9 6
20 2 11 7 36 11 55 3 19 9 49 12 65 3 17 6 40 6 53 1 12 4 22 7 22 3 0 6 6 6
13 0 18 10 72 27 154 17 77 26 125 32 158 1 11 5 29 8 40 6 25 46 231 52 265
2 14 9 45 15 70 5 25 12 59 14 75 2 17 4 31 6 33 2 3 4 11 14 67 4 28 9 55 11
60 5 24 29 139 39 195 3 14 7 36 10 50 3 14 8 39 10 55 3 17 8 37 11 46 2 9 7
32 9 50 5 36 5 35 24 121 7 32 14 70 16 85 2 16 4 28 5 28 1 0 3 9 5 20 2 11
6 31 9 45 4 14 8 40 11 59 2 18 7 41 9 50 3 9 8 30 11 46 2 17 7 41 10 55 3
14 9 48 15 75 5 28 12 61 14 75 11 51 16 76 21 109 3 19 8 38 11 42 2 4 5 23
6 41 0 28 -11 45 -77 113 -98 100 -195 216 -268 320 -31 44 -60 85 -64 90 -23
30 -98 176 -166 322 -6 13 -13 21 -15 18 -3 -3 -13 2 -22 10 -10 9 -21 15 -26
13 -5 -1 -19 3 -31 10 -13 7 -23 10 -23 7 0 -3 -8 -1 -19 4 -50 27 -211 53
-343 55 -76 2 -139 2 -140 1z"/>
<path d="M22340 13670 c-5 -3 -12 -19 -16 -35 -4 -17 -10 -34 -14 -40 -4 -5
-11 -21 -15 -35 -19 -62 -125 -281 -151 -311 -8 -8 -14 -19 -14 -24 0 -4 -11
-23 -25 -41 -14 -18 -25 -35 -25 -38 0 -3 -7 -14 -15 -23 -9 -10 -39 -47 -68
-83 -174 -217 -445 -413 -730 -526 -56 -22 -58 -26 -92 -169 -38 -161 -45
-215 -47 -340 -2 -139 20 -242 76 -368 28 -62 105 -190 118 -195 4 -2 8 -8 8
-14 0 -5 6 -15 13 -22 6 -7 23 -27 37 -45 29 -37 88 -108 110 -131 8 -8 42
-47 75 -85 33 -38 71 -81 85 -95 112 -119 198 -258 215 -348 2 -9 4 -17 5 -17
3 0 10 -41 13 -72 1 -18 4 -33 7 -33 8 0 4 -198 -5 -240 -27 -133 -79 -211
-160 -237 -35 -11 -120 0 -161 22 -16 8 -34 15 -39 15 -6 0 -34 16 -64 35 -29
19 -55 35 -57 35 -4 0 -105 77 -157 119 -24 20 -144 131 -227 212 -34 33 -64
59 -65 57 -2 -2 -6 -19 -9 -38 -3 -19 -8 -46 -11 -60 -4 -14 -9 -38 -11 -55
-5 -27 -14 -73 -30 -145 -13 -66 -34 -169 -39 -200 -3 -19 -10 -53 -15 -75 -6
-22 -12 -53 -14 -70 -2 -16 -5 -30 -6 -30 -1 0 -3 -11 -5 -25 -2 -14 -15 -83
-30 -155 -15 -71 -28 -140 -31 -152 -6 -34 -13 -70 -20 -100 -3 -16 -7 -37 -9
-48 -1 -11 -5 -31 -9 -45 -3 -14 -8 -37 -10 -53 -3 -15 -7 -35 -10 -45 -3 -9
-7 -35 -11 -57 -3 -22 -7 -47 -10 -55 -4 -14 -8 -35 -20 -97 -3 -16 -10 -51
-16 -79 -5 -28 -12 -64 -15 -80 -3 -16 -7 -36 -9 -44 -3 -11 8 -19 38 -29 47
-15 336 -87 381 -95 16 -3 52 -10 80 -16 28 -5 62 -12 76 -14 14 -3 25 -5 25
-6 0 -2 12 -3 100 -14 28 -3 59 -8 70 -10 21 -5 95 -14 185 -22 91 -8 498 -9
600 -1 147 12 194 18 280 34 19 3 42 7 50 8 16 2 40 8 135 31 33 9 65 16 70
17 6 2 16 6 23 10 6 5 12 6 12 3 0 -5 14 -1 95 30 11 4 25 8 30 9 17 4 158 68
210 96 77 41 118 63 129 72 10 8 42 28 91 59 11 7 22 15 25 18 3 3 21 17 40
30 40 28 53 39 170 143 145 128 284 285 380 427 24 36 46 67 50 70 16 12 115
218 144 300 52 144 66 224 66 370 0 106 -3 129 -25 210 -9 36 -18 70 -19 75
-12 44 -44 110 -92 186 -40 63 -82 110 -332 367 -119 122 -212 226 -212 236 0
2 -15 27 -34 54 -31 46 -115 212 -120 236 -2 6 -10 36 -19 66 -9 30 -18 64
-20 75 -1 11 -5 25 -8 30 -3 6 -5 55 -5 110 1 90 4 106 32 165 63 133 180 214
309 214 133 0 212 -26 345 -117 46 -32 57 -41 150 -125 30 -28 56 -49 57 -48
2 1 12 49 23 107 12 57 23 113 26 124 2 10 6 37 10 59 3 22 7 43 9 46 2 3 6
25 10 50 4 25 8 47 10 50 2 3 6 22 9 43 3 21 13 72 22 114 8 41 17 87 19 101
2 15 13 68 24 118 11 50 23 111 26 135 4 24 8 46 10 49 2 3 6 23 10 45 4 22 8
45 9 50 2 6 7 33 11 60 5 28 10 52 10 55 1 3 5 23 10 45 4 22 10 49 12 60 2
11 6 31 9 45 2 14 7 36 10 50 3 14 8 36 10 50 2 14 6 35 9 48 4 16 1 22 -12
23 -66 4 -2117 3 -2123 -1z"/>
<path d="M19746 12973 c-2 -2 -24 -6 -49 -8 -40 -4 -208 -37 -262 -51 -11 -2
-31 -6 -45 -9 -14 -2 -42 -10 -63 -17 l-39 -14 29 -14 c15 -8 30 -17 33 -20 7
-8 93 -58 170 -98 184 -97 400 -170 580 -197 74 -11 301 -13 365 -4 103 16
109 17 155 27 25 6 56 13 70 16 113 22 281 75 243 76 -7 0 -58 22 -112 49 -55
27 -102 47 -105 43 -3 -3 -6 0 -6 6 0 7 -5 12 -10 12 -6 0 -29 9 -53 20 -56
26 -188 80 -207 85 -8 2 -41 13 -72 24 -32 11 -58 17 -58 14 0 -3 -6 -1 -12 4
-11 9 -45 18 -103 29 -5 1 -12 3 -15 4 -7 2 -37 8 -90 15 -48 7 -338 14 -344
8z"/>
<path d="M19135 12711 c-3 -11 -8 -29 -10 -41 -2 -12 -6 -29 -9 -38 -3 -9 -7
-34 -10 -54 -3 -21 -10 -57 -15 -80 -6 -24 -13 -59 -16 -78 -3 -19 -14 -78
-25 -130 -11 -52 -22 -111 -25 -130 -3 -19 -8 -42 -10 -50 -2 -8 -7 -31 -10
-50 -3 -19 -10 -54 -16 -78 -5 -23 -12 -59 -15 -80 -3 -20 -10 -57 -16 -82 -5
-25 -12 -56 -14 -70 -3 -14 -13 -68 -24 -120 -10 -52 -21 -108 -24 -125 -3
-16 -8 -41 -11 -55 -3 -14 -7 -36 -10 -50 -8 -43 -14 -74 -20 -100 -6 -26 -12
-57 -20 -100 -3 -14 -7 -36 -10 -50 -3 -14 -8 -38 -10 -55 -3 -16 -8 -37 -10
-45 -2 -8 -7 -31 -10 -50 -3 -19 -8 -46 -10 -60 -3 -14 -7 -34 -9 -45 -2 -11
-16 -81 -31 -155 -15 -74 -28 -145 -31 -157 -7 -41 -12 -65 -64 -323 -28 -140
-53 -266 -55 -280 -2 -14 -8 -47 -14 -75 -6 -27 -13 -61 -15 -75 -3 -14 -7
-36 -10 -50 -3 -14 -10 -50 -16 -80 -6 -30 -12 -66 -15 -80 -3 -14 -7 -38 -10
-55 -4 -16 -15 -70 -25 -120 -11 -49 -29 -142 -41 -205 -12 -63 -22 -119 -24
-125 -1 -5 -5 -28 -10 -50 -4 -22 -9 -49 -12 -60 -14 -70 -24 -123 -28 -145
-3 -14 -7 -36 -10 -50 -3 -14 -8 -38 -10 -55 -3 -16 -8 -38 -11 -47 -3 -10 -2
-19 3 -19 4 -1 457 -2 1006 -3 879 -1 998 1 1002 14 2 8 6 26 9 40 2 14 14 75
26 135 12 61 24 121 26 135 2 14 10 59 19 100 9 41 18 86 20 100 2 14 10 50
16 80 6 30 12 64 14 75 6 32 14 73 40 200 13 66 27 136 30 155 3 19 8 43 11
52 7 23 13 56 20 108 3 25 9 49 12 54 3 5 6 19 8 30 2 24 6 42 28 153 9 43 17
89 20 103 2 14 9 45 14 70 6 25 13 62 16 82 3 21 10 57 15 80 6 24 12 55 14
69 3 14 14 73 26 130 11 57 22 115 25 129 2 14 12 61 21 105 9 44 19 91 21
105 3 14 11 57 19 95 8 39 17 85 20 103 3 18 12 64 20 102 8 38 17 83 20 100
3 16 7 44 10 62 3 17 8 35 11 39 3 5 7 25 9 46 2 21 11 71 19 110 16 75 26
123 32 158 2 11 5 31 8 45 14 65 27 127 31 150 2 14 7 36 10 50 3 14 7 36 10
50 3 14 7 36 10 50 3 14 8 41 11 60 3 19 7 42 9 50 3 8 7 33 11 55 3 22 7 42
9 45 2 3 6 25 10 49 l6 43 -33 -6 c-18 -3 -73 -15 -123 -26 -49 -11 -103 -23
-120 -25 -40 -7 -70 -13 -70 -15 0 -1 -9 -3 -20 -4 -11 -2 -43 -6 -70 -10
-372 -53 -676 -34 -962 62 -51 17 -102 37 -115 44 -13 7 -25 13 -28 13 -40 6
-350 193 -380 230 -17 20 -27 19 -35 -4z"/>
</g>
</svg>
